<?xml version="1.0" encoding="UTF-8" standalone="no"?>
<!-- Created with Inkscape (http://www.inkscape.org/) -->

<svg
   xmlns:dc="http://purl.org/dc/elements/1.1/"
   xmlns:cc="http://creativecommons.org/ns#"
   xmlns:rdf="http://www.w3.org/1999/02/22-rdf-syntax-ns#"
   xmlns:svg="http://www.w3.org/2000/svg"
   xmlns="http://www.w3.org/2000/svg"
   xmlns:sodipodi="http://sodipodi.sourceforge.net/DTD/sodipodi-0.dtd"
   xmlns:inkscape="http://www.inkscape.org/namespaces/inkscape"
   width="163.05617mm"
   height="97.856689mm"
   viewBox="0 0 163.05617 97.856688"
   version="1.1"
   id="svg8"
   inkscape:version="0.92.4 (5da689c313, 2019-01-14)"
   sodipodi:docname="bat.svg"
   inkscape:export-filename="E:\munka\my_svg_drawings\turtle.png"
   inkscape:export-xdpi="10"
   inkscape:export-ydpi="10">
  <defs
     id="defs2">
    <inkscape:path-effect
       effect="spiro"
       id="path-effect5531"
       is_visible="true" />
  </defs>
  <sodipodi:namedview
     id="base"
     pagecolor="#ffffff"
     bordercolor="#666666"
     borderopacity="1.0"
     inkscape:pageopacity="0.0"
     inkscape:pageshadow="2"
     inkscape:zoom="0.9899495"
     inkscape:cx="305.6738"
     inkscape:cy="149.04964"
     inkscape:document-units="mm"
     inkscape:current-layer="layer1"
     showgrid="false"
     inkscape:window-width="1920"
     inkscape:window-height="1017"
     inkscape:window-x="-8"
     inkscape:window-y="-8"
     inkscape:window-maximized="1"
     fit-margin-top="0"
     fit-margin-left="0"
     fit-margin-right="0"
     fit-margin-bottom="0"
     inkscape:lockguides="true" />
  <metadata
     id="metadata5">
    <rdf:RDF>
      <cc:Work
         rdf:about="">
        <dc:format>image/svg+xml</dc:format>
        <dc:type
           rdf:resource="http://purl.org/dc/dcmitype/StillImage" />
        <dc:title></dc:title>
      </cc:Work>
    </rdf:RDF>
  </metadata>
  <g
     inkscape:label="Layer 1"
     inkscape:groupmode="layer"
     id="layer1"
     transform="translate(-40.52249,-107.64153)">
    <g
       id="g4612"
       transform="matrix(1.0166644,0,0,1.0166644,13.040595,-21.361779)"
       style="stroke-width:0.98360872">
      <path
         transform="matrix(-0.36963991,0.09904471,0.09904471,0.36963991,134.26166,109.66015)"
         inkscape:transform-center-y="1.185482"
         inkscape:transform-center-x="1.8464499"
         d="M 52.495163,104.46916 C 31.545596,129.34677 23.54074,127.92076 12.470881,97.339096 1.4010213,66.757434 6.638413,60.538031 38.657839,66.242083 70.677265,71.946134 73.44473,79.59155 52.495163,104.46916 Z"
         inkscape:randomized="0"
         inkscape:rounded="0.8"
         inkscape:flatsided="true"
         sodipodi:arg2="1.7470904"
         sodipodi:arg1="0.69989287"
         sodipodi:r2="11.735917"
         sodipodi:r1="23.471834"
         sodipodi:cy="89.350113"
         sodipodi:cx="34.541294"
         sodipodi:sides="3"
         id="path2753-2"
         style="opacity:1;vector-effect:none;fill:#333333;fill-opacity:1;fill-rule:nonzero;stroke:none;stroke-width:3.40032005;stroke-linecap:round;stroke-linejoin:miter;stroke-miterlimit:4;stroke-dasharray:none;stroke-dashoffset:0;stroke-opacity:1"
         sodipodi:type="star" />
      <path
         transform="matrix(-0.22681852,0.06077584,0.06077584,0.22681852,132.09659,123.88996)"
         inkscape:transform-center-y="0.72743266"
         inkscape:transform-center-x="1.1330261"
         d="M 52.495163,104.46916 C 31.545596,129.34677 23.54074,127.92076 12.470881,97.339096 1.4010213,66.757434 6.638413,60.538031 38.657839,66.242083 70.677265,71.946134 73.44473,79.59155 52.495163,104.46916 Z"
         inkscape:randomized="0"
         inkscape:rounded="0.8"
         inkscape:flatsided="true"
         sodipodi:arg2="1.7470904"
         sodipodi:arg1="0.69989287"
         sodipodi:r2="11.735917"
         sodipodi:r1="23.471834"
         sodipodi:cy="89.350113"
         sodipodi:cx="34.541294"
         sodipodi:sides="3"
         id="path2753-8-6"
         style="opacity:1;vector-effect:none;fill:#666666;fill-opacity:1;fill-rule:nonzero;stroke:none;stroke-width:5.54140806;stroke-linecap:round;stroke-linejoin:miter;stroke-miterlimit:4;stroke-dasharray:none;stroke-dashoffset:0;stroke-opacity:1"
         sodipodi:type="star" />
      <path
         transform="matrix(0.3696399,0.09904471,-0.09904471,0.3696399,75.777511,109.66015)"
         inkscape:transform-center-y="1.1854817"
         inkscape:transform-center-x="-1.8464563"
         d="M 52.495163,104.46916 C 31.545596,129.34677 23.54074,127.92076 12.470881,97.339096 1.4010213,66.757434 6.638413,60.538031 38.657839,66.242083 70.677265,71.946134 73.44473,79.59155 52.495163,104.46916 Z"
         inkscape:randomized="0"
         inkscape:rounded="0.8"
         inkscape:flatsided="true"
         sodipodi:arg2="1.7470904"
         sodipodi:arg1="0.69989287"
         sodipodi:r2="11.735917"
         sodipodi:r1="23.471834"
         sodipodi:cy="89.350113"
         sodipodi:cx="34.541294"
         sodipodi:sides="3"
         id="path2753"
         style="opacity:1;vector-effect:none;fill:#333333;fill-opacity:1;fill-rule:nonzero;stroke:none;stroke-width:3.40032005;stroke-linecap:round;stroke-linejoin:miter;stroke-miterlimit:4;stroke-dasharray:none;stroke-dashoffset:0;stroke-opacity:1"
         sodipodi:type="star" />
      <path
         transform="matrix(0.22681852,0.06077584,-0.06077584,0.22681852,77.942575,123.88996)"
         inkscape:transform-center-y="0.72743337"
         inkscape:transform-center-x="-1.1330225"
         d="M 52.495163,104.46916 C 31.545596,129.34677 23.54074,127.92076 12.470881,97.339096 1.4010213,66.757434 6.638413,60.538031 38.657839,66.242083 70.677265,71.946134 73.44473,79.59155 52.495163,104.46916 Z"
         inkscape:randomized="0"
         inkscape:rounded="0.8"
         inkscape:flatsided="true"
         sodipodi:arg2="1.7470904"
         sodipodi:arg1="0.69989287"
         sodipodi:r2="11.735917"
         sodipodi:r1="23.471834"
         sodipodi:cy="89.350113"
         sodipodi:cx="34.541294"
         sodipodi:sides="3"
         id="path2753-8"
         style="opacity:1;vector-effect:none;fill:#666666;fill-opacity:1;fill-rule:nonzero;stroke:none;stroke-width:5.54140806;stroke-linecap:round;stroke-linejoin:miter;stroke-miterlimit:4;stroke-dasharray:none;stroke-dashoffset:0;stroke-opacity:1"
         sodipodi:type="star" />
      <g
         transform="matrix(0.74815525,0,0,0.74815525,6.8077242,56.197009)"
         style="fill:#1a1a1a;stroke:none;stroke-width:1.31471205"
         id="g3438">
        <g
           style="fill:#1a1a1a;stroke:none;stroke-width:1.40582371"
           transform="matrix(0.93518988,0,0,0.93518988,37.430597,27.220482)"
           id="g3430">
          <path
             style="opacity:1;fill:#1a1a1a;fill-opacity:1;fill-rule:nonzero;stroke:none;stroke-width:1.85978746;stroke-linecap:round;stroke-linejoin:round;stroke-miterlimit:4;stroke-dasharray:none;stroke-opacity:1"
             d="m 107.14214,87.738248 a 17.288692,10.684517 0 0 1 14.83595,-10.563011 20.066949,20.066044 0 0 0 -3.41332,11.16614 20.066949,20.066044 0 0 0 2.61769,9.882811 17.288692,10.684517 0 0 1 -14.04032,-10.48594 z"
             id="path3426"
             inkscape:connector-curvature="0" />
          <path
             style="opacity:1;fill:#1a1a1a;fill-opacity:1;fill-rule:nonzero;stroke:none;stroke-width:1.85978746;stroke-linecap:round;stroke-linejoin:round;stroke-miterlimit:4;stroke-dasharray:none;stroke-opacity:1"
             d="m 107.14214,87.738248 a 17.288692,10.684517 0 0 0 -14.835947,-10.56301 20.066949,20.066044 0 0 1 3.413319,11.16614 20.066949,20.066044 0 0 1 -2.617689,9.88281 17.288692,10.684517 0 0 0 14.040317,-10.48594 z"
             id="path3428"
             inkscape:connector-curvature="0" />
        </g>
        <g
           id="g2950"
           transform="matrix(0.93518988,0,0,0.93518988,29.880571,27.787446)"
           style="fill:#1a1a1a;stroke:none;stroke-width:1.40582371">
          <path
             inkscape:connector-curvature="0"
             id="path950-2-1-3-7"
             d="m 107.14214,87.738248 a 17.288692,10.684517 0 0 1 14.83595,-10.563011 20.066949,20.066044 0 0 0 -3.41332,11.16614 20.066949,20.066044 0 0 0 2.61769,9.882811 17.288692,10.684517 0 0 1 -14.04032,-10.48594 z"
             style="opacity:1;fill:#1a1a1a;fill-opacity:1;fill-rule:nonzero;stroke:none;stroke-width:1.85978746;stroke-linecap:round;stroke-linejoin:round;stroke-miterlimit:4;stroke-dasharray:none;stroke-opacity:1" />
          <path
             inkscape:connector-curvature="0"
             id="path950-2-1-3"
             d="m 107.14214,87.738248 a 17.288692,10.684517 0 0 0 -14.835947,-10.56301 20.066949,20.066044 0 0 1 3.413319,11.16614 20.066949,20.066044 0 0 1 -2.617689,9.88281 17.288692,10.684517 0 0 0 14.040317,-10.48594 z"
             style="opacity:1;fill:#1a1a1a;fill-opacity:1;fill-rule:nonzero;stroke:none;stroke-width:1.85978746;stroke-linecap:round;stroke-linejoin:round;stroke-miterlimit:4;stroke-dasharray:none;stroke-opacity:1" />
        </g>
      </g>
      <g
         style="stroke-width:1.31471205"
         transform="matrix(0.74815525,0,0,0.74815525,6.8077242,59.024858)"
         id="g2591">
        <path
           style="opacity:1;fill:#333333;fill-opacity:1;fill-rule:nonzero;stroke:none;stroke-width:1.739254;stroke-linecap:round;stroke-linejoin:round;stroke-miterlimit:4;stroke-dasharray:none;stroke-opacity:1"
           d="m 154.06342,172.14196 a 22.655897,3.6824636 80.701761 0 0 -1.156,1.27279 22.655897,3.6824636 80.701761 0 0 -0.54829,5.53351 22.655897,3.6824636 80.701761 0 0 -3.92948,-3.02876 22.655897,3.6824636 80.701761 0 0 -0.44803,2.76728 22.655897,3.6824636 80.701761 0 0 -4.33462,-4.13825 22.655897,3.6824636 80.701761 0 0 2.27686,28.55019 22.655897,3.6824636 80.701761 0 0 6.93033,13.61571 22.655897,3.6824636 80.701761 0 0 0.44803,-2.76727 22.655897,3.6824636 80.701761 0 0 4.33462,4.13825 22.655897,3.6824636 80.701761 0 0 0.54829,-5.53507 22.655897,3.6824636 80.701761 0 0 3.92947,3.03031 22.655897,3.6824636 80.701761 0 0 -2.27686,-28.54968 22.655897,3.6824636 80.701761 0 0 -5.77432,-14.88901 z"
           id="path1104-1-7-7"
           inkscape:connector-curvature="0" />
        <path
           inkscape:connector-curvature="0"
           id="path2587"
           d="m 106.79684,172.14196 a 3.6824636,22.655897 9.298239 0 1 1.156,1.27279 3.6824636,22.655897 9.298239 0 1 0.54829,5.53351 3.6824636,22.655897 9.298239 0 1 3.92947,-3.02876 3.6824636,22.655897 9.298239 0 1 0.44804,2.76728 3.6824636,22.655897 9.298239 0 1 4.33462,-4.13825 3.6824636,22.655897 9.298239 0 1 -2.27687,28.55019 3.6824636,22.655897 9.298239 0 1 -6.93032,13.61571 3.6824636,22.655897 9.298239 0 1 -0.44803,-2.76727 3.6824636,22.655897 9.298239 0 1 -4.33462,4.13825 3.6824636,22.655897 9.298239 0 1 -0.54829,-5.53507 3.6824636,22.655897 9.298239 0 1 -3.929474,3.03031 3.6824636,22.655897 9.298239 0 1 2.276864,-28.54968 3.6824636,22.655897 9.298239 0 1 5.77432,-14.88901 z"
           style="opacity:1;fill:#333333;fill-opacity:1;fill-rule:nonzero;stroke:none;stroke-width:1.739254;stroke-linecap:round;stroke-linejoin:round;stroke-miterlimit:4;stroke-dasharray:none;stroke-opacity:1" />
      </g>
      <path
         inkscape:connector-curvature="0"
         id="path1773"
         d="m 173.94933,146.44093 a 84.305979,81.046267 0 0 1 -66.77816,31.73995 84.305979,81.046267 0 0 1 -66.778153,-31.6607 84.305979,81.046267 0 0 0 -13.361585,24.63311 17.306269,17.306269 0 0 1 4.658383,-0.6588 h 3.87e-4 a 17.306269,17.306269 0 0 1 17.305882,17.30627 17.306269,17.306269 0 0 1 -0.0232,0.65725 17.156299,17.156299 0 0 1 7.365497,-1.68489 17.156299,17.156299 0 0 1 16.449905,12.32313 10.157732,10.157732 0 0 1 7.433541,-3.248 10.157732,10.157732 0 0 1 9.823242,7.59863 31.692159,22.855134 0 0 1 17.856821,-4.00152 31.692159,22.855134 0 0 1 16.57554,3.40883 10.157732,10.157732 0 0 1 9.64308,-7.00594 10.157732,10.157732 0 0 1 7.43354,3.248 17.156299,17.156299 0 0 1 16.44991,-12.32313 17.156299,17.156299 0 0 1 7.36549,1.68489 17.306269,17.306269 0 0 1 -0.0232,-0.65725 17.306269,17.306269 0 0 1 17.30627,-17.30627 17.306269,17.306269 0 0 1 4.76239,0.67465 84.305979,81.046267 0 0 0 -13.46559,-24.72821 z"
         style="opacity:1;fill:#333333;fill-opacity:1;fill-rule:nonzero;stroke:none;stroke-width:0.78073943;stroke-linecap:round;stroke-linejoin:miter;stroke-miterlimit:4;stroke-dasharray:none;stroke-dashoffset:0;stroke-opacity:1" />
      <path
         sodipodi:nodetypes="ssss"
         inkscape:connector-curvature="0"
         id="path9785-0-5"
         d="m 72.788285,205.88309 c 11.322251,18.92474 51.635545,18.71605 63.260275,0 14.14036,-22.76631 -4.53201,-51.26551 -30.1783,-51.732 -26.041034,-0.47367 -47.066411,28.35753 -33.081975,51.732 z"
         style="fill:#333333;fill-opacity:1;fill-rule:evenodd;stroke:none;stroke-width:1.30131435;stroke-linecap:butt;stroke-linejoin:miter;stroke-miterlimit:4;stroke-dasharray:none;stroke-opacity:1" />
      <path
         sodipodi:nodetypes="ssss"
         inkscape:connector-curvature="0"
         id="path9785-0"
         d="m 76.688419,188.52426 c 9.96476,19.48186 45.444621,19.26705 55.675571,0 12.445,-23.43651 -3.98862,-52.77469 -26.56002,-53.25491 -22.918792,-0.48762 -41.423311,29.19233 -29.115551,53.25491 z"
         style="fill:#4d4d4d;fill-opacity:1;fill-rule:evenodd;stroke:none;stroke-width:1.30131435;stroke-linecap:butt;stroke-linejoin:miter;stroke-miterlimit:4;stroke-dasharray:none;stroke-opacity:1" />
      <g
         style="stroke-width:1.31471205"
         transform="matrix(0.74815525,0,0,0.74815525,6.4721002,56.197009)"
         id="g2612">
        <path
           style="fill:#ffffff;fill-rule:evenodd;stroke:none;stroke-width:0.34839869;stroke-linecap:round;stroke-linejoin:round;stroke-miterlimit:4;stroke-dasharray:none;stroke-opacity:1"
           d="m 121.21765,185.76608 h 7.61718 l -4.1425,10.6492 z"
           id="path2593"
           inkscape:connector-curvature="0"
           sodipodi:nodetypes="cccc" />
        <path
           style="fill:#ffffff;fill-rule:evenodd;stroke:none;stroke-width:0.34839869;stroke-linecap:round;stroke-linejoin:round;stroke-miterlimit:4;stroke-dasharray:none;stroke-opacity:1"
           d="m 133.76151,185.79701 h 7.61718 l -4.1425,10.64921 z"
           id="path2593-4"
           inkscape:connector-curvature="0"
           sodipodi:nodetypes="cccc" />
      </g>
      <g
         style="stroke-width:1.31471205"
         transform="matrix(0.74815525,0,0,0.74815525,26.253309,84.142731)"
         id="g1753">
        <path
           style="opacity:1;fill:none;fill-opacity:1;fill-rule:nonzero;stroke:#000000;stroke-width:1.73925447;stroke-linecap:round;stroke-linejoin:round;stroke-miterlimit:4;stroke-dasharray:none;stroke-opacity:1"
           id="path1707"
           sodipodi:type="arc"
           sodipodi:cx="104.85819"
           sodipodi:cy="129.56427"
           sodipodi:rx="31.190493"
           sodipodi:ry="19.276785"
           sodipodi:start="0"
           sodipodi:end="3.1415927"
           d="m 136.04869,129.56427 a 31.190493,19.276785 0 0 1 -15.59525,16.69419 31.190493,19.276785 0 0 1 -31.190495,0 A 31.190493,19.276785 0 0 1 73.6677,129.56427"
           sodipodi:open="true" />
        <g
           style="stroke-width:1.31471205"
           id="g1747">
          <path
             d="m 140.35356,124.65058 a 4.3467264,4.3467264 0 0 1 -2.17336,3.76438 4.3467264,4.3467264 0 0 1 -4.34673,0 4.3467264,4.3467264 0 0 1 -2.17336,-3.76438"
             sodipodi:open="true"
             sodipodi:end="3.1415927"
             sodipodi:start="0"
             sodipodi:ry="4.3467264"
             sodipodi:rx="4.3467264"
             sodipodi:cy="124.65058"
             sodipodi:cx="136.00684"
             sodipodi:type="arc"
             id="path1728"
             style="opacity:1;fill:none;fill-opacity:1;fill-rule:nonzero;stroke:#000000;stroke-width:1.73925447;stroke-linecap:round;stroke-linejoin:round;stroke-miterlimit:4;stroke-dasharray:none;stroke-opacity:1" />
          <path
             d="m 78.056275,124.31863 a 4.3467264,4.3467264 0 0 1 -2.173363,3.76437 4.3467264,4.3467264 0 0 1 -4.346726,0 4.3467264,4.3467264 0 0 1 -2.173363,-3.76437"
             sodipodi:open="true"
             sodipodi:end="3.1415927"
             sodipodi:start="0"
             sodipodi:ry="4.3467264"
             sodipodi:rx="4.3467264"
             sodipodi:cy="124.31863"
             sodipodi:cx="73.709549"
             sodipodi:type="arc"
             id="path1728-1"
             style="opacity:1;fill:none;fill-opacity:1;fill-rule:nonzero;stroke:#000000;stroke-width:1.73925447;stroke-linecap:round;stroke-linejoin:round;stroke-miterlimit:4;stroke-dasharray:none;stroke-opacity:1" />
        </g>
      </g>
      <path
         transform="scale(1,-1)"
         sodipodi:open="true"
         d="m 124.31798,-153.47548 a 6.5626817,6.2875566 0 0 1 -2.74304,6.55394 6.5626817,6.2875566 0 0 1 -7.37016,-0.0213"
         sodipodi:end="2.1700323"
         sodipodi:start="6.0683178"
         sodipodi:ry="6.2875566"
         sodipodi:rx="6.5626817"
         sodipodi:cy="-152.13486"
         sodipodi:cx="117.90621"
         sodipodi:type="arc"
         id="path1010-0"
         style="opacity:1;fill:none;fill-opacity:1;fill-rule:nonzero;stroke:#333333;stroke-width:1.30123234;stroke-linecap:round;stroke-linejoin:round;stroke-miterlimit:4;stroke-dasharray:none;stroke-opacity:1" />
      <path
         transform="scale(-1)"
         sodipodi:open="true"
         d="m -85.089061,-153.47548 a 6.5626817,6.2875566 0 0 1 -2.743043,6.55394 6.5626817,6.2875566 0 0 1 -7.370157,-0.0213"
         sodipodi:end="2.1700323"
         sodipodi:start="6.0683178"
         sodipodi:ry="6.2875566"
         sodipodi:rx="6.5626817"
         sodipodi:cy="-152.13486"
         sodipodi:cx="-91.500832"
         sodipodi:type="arc"
         id="path1010-9-0"
         style="opacity:1;fill:none;fill-opacity:1;fill-rule:nonzero;stroke:#333333;stroke-width:1.30123234;stroke-linecap:round;stroke-linejoin:round;stroke-miterlimit:4;stroke-dasharray:none;stroke-opacity:1" />
      <g
         transform="matrix(1.0684086,0,0,1.07523,6.1251381,37.579134)"
         id="g2099"
         style="stroke-width:0.91770488">
        <g
           id="g2091"
           style="stroke-width:0.91770488">
          <ellipse
             ry="7.2970724"
             rx="7.2967434"
             cy="115.54604"
             cx="82.546867"
             id="path967-0-8"
             style="opacity:1;fill:#000000;fill-opacity:1;fill-rule:nonzero;stroke:#000000;stroke-width:1.21404696;stroke-linecap:round;stroke-linejoin:round;stroke-miterlimit:4;stroke-dasharray:none;stroke-opacity:1" />
          <ellipse
             ry="3.2576215"
             rx="3.2574744"
             transform="scale(-1,1)"
             cy="114.43118"
             cx="-80.91391"
             id="path984-1-5"
             style="opacity:1;fill:#ffffff;fill-opacity:1;fill-rule:nonzero;stroke:#000000;stroke-width:1.21404696;stroke-linecap:round;stroke-linejoin:round;stroke-miterlimit:4;stroke-dasharray:none;stroke-opacity:1" />
        </g>
        <g
           id="g2087"
           style="stroke-width:0.91770488">
          <ellipse
             ry="7.2970724"
             rx="7.2967434"
             transform="scale(-1,1)"
             cy="115.54604"
             cx="-101.98623"
             id="path967-0-8-6"
             style="opacity:1;fill:#000000;fill-opacity:1;fill-rule:nonzero;stroke:#000000;stroke-width:1.21404696;stroke-linecap:round;stroke-linejoin:round;stroke-miterlimit:4;stroke-dasharray:none;stroke-opacity:1" />
          <ellipse
             ry="3.2576215"
             rx="3.2574744"
             cy="113.29725"
             cx="100.97334"
             id="path984-1-5-50"
             style="opacity:1;fill:#ffffff;fill-opacity:1;fill-rule:nonzero;stroke:#000000;stroke-width:1.21404696;stroke-linecap:round;stroke-linejoin:round;stroke-miterlimit:4;stroke-dasharray:none;stroke-opacity:1" />
        </g>
      </g>
      <path
         inkscape:connector-curvature="0"
         id="path815-0-8-4-0-0-0"
         d="m 87.43985,132.76933 a 7.4400196,4.5428611 14.843048 0 0 -1.92261,2.14207 7.4400196,4.5428611 14.843048 0 0 6.007522,6.30329 7.4400196,4.5428611 14.843048 0 0 5.351398,0.0926 4.5650106,7.4039212 15.159968 0 0 1.095149,-0.42014 7.4400196,4.5428611 14.843048 0 0 0.165814,-0.095 4.5650106,7.4039212 15.159968 0 0 0.165656,-0.0953 7.4400196,4.5428611 14.843048 0 0 0.913483,-0.73305 4.5650106,7.4039212 15.159968 0 0 2.595098,-4.65476 4.5650106,7.4039212 15.159968 0 0 -2.485665,-8.32526 4.5650106,7.4039212 15.159968 0 0 -6.128933,5.29931 7.4400196,4.5428611 14.843048 0 0 -5.756912,0.48628 z"
         style="opacity:1;fill:#ff00ff;fill-opacity:1;fill-rule:nonzero;stroke:none;stroke-width:1.30123234;stroke-linecap:round;stroke-linejoin:round;stroke-miterlimit:4;stroke-dasharray:none;stroke-opacity:1" />
      <g
         style="stroke-width:1.31471205"
         transform="matrix(0.74815525,0,0,0.74815525,7.8956669,56.197009)"
         id="g4525">
        <ellipse
           style="opacity:1;fill:#333333;fill-opacity:1;fill-rule:nonzero;stroke:none;stroke-width:1.73925447;stroke-linecap:round;stroke-linejoin:round;stroke-miterlimit:4;stroke-dasharray:none;stroke-opacity:1"
           id="path883-0-1-46"
           cx="129.3954"
           cy="167.10432"
           rx="15.235206"
           ry="7.4243016" />
        <g
           style="stroke-width:4.3654685"
           id="g4894"
           transform="matrix(0.3056469,0,0,0.29674241,32.984566,132.57474)">
          <circle
             r="7.6171813"
             cy="116.36214"
             cx="303.2999"
             id="path984-0"
             style="opacity:1;fill:#000000;fill-opacity:1;fill-rule:nonzero;stroke:#000000;stroke-width:5.7751503;stroke-linecap:round;stroke-linejoin:round;stroke-miterlimit:4;stroke-dasharray:none;stroke-opacity:1" />
          <circle
             r="7.6171813"
             cy="116.36214"
             cx="327.56424"
             id="path984-0-1"
             style="opacity:1;fill:#000000;fill-opacity:1;fill-rule:nonzero;stroke:#000000;stroke-width:5.7751503;stroke-linecap:round;stroke-linejoin:round;stroke-miterlimit:4;stroke-dasharray:none;stroke-opacity:1" />
        </g>
      </g>
    </g>
  </g>
</svg>
