<?xml version="1.0" encoding="UTF-8" standalone="no"?>
<!-- Created with Inkscape (http://www.inkscape.org/) -->

<svg
   xmlns:dc="http://purl.org/dc/elements/1.1/"
   xmlns:cc="http://creativecommons.org/ns#"
   xmlns:rdf="http://www.w3.org/1999/02/22-rdf-syntax-ns#"
   xmlns:svg="http://www.w3.org/2000/svg"
   xmlns="http://www.w3.org/2000/svg"
   xmlns:xlink="http://www.w3.org/1999/xlink"
   xmlns:sodipodi="http://sodipodi.sourceforge.net/DTD/sodipodi-0.dtd"
   xmlns:inkscape="http://www.inkscape.org/namespaces/inkscape"
   width="163.77133mm"
   height="159.27278mm"
   viewBox="0 0 163.77133 159.27278"
   version="1.1"
   id="svg8"
   inkscape:version="0.92.4 (5da689c313, 2019-01-14)"
   sodipodi:docname="rooster.svg">
  <defs
     id="defs2">
    <linearGradient
       inkscape:collect="always"
       id="linearGradient5006">
      <stop
         style="stop-color:#e6e6e6;stop-opacity:1"
         offset="0"
         id="stop5002" />
      <stop
         style="stop-color:#ffffff;stop-opacity:1"
         offset="1"
         id="stop5004" />
    </linearGradient>
    <filter
       inkscape:collect="always"
       style="color-interpolation-filters:sRGB"
       id="filter4970"
       x="-0.024487024"
       width="1.048974"
       y="-0.023531971"
       height="1.0470639">
      <feGaussianBlur
         inkscape:collect="always"
         stdDeviation="0.57583556"
         id="feGaussianBlur4972" />
    </filter>
    <filter
       inkscape:collect="always"
       style="color-interpolation-filters:sRGB"
       id="filter4996"
       x="-0.019654637"
       width="1.0393093"
       y="-0.030812128"
       height="1.0616243">
      <feGaussianBlur
         inkscape:collect="always"
         stdDeviation="0.48724596"
         id="feGaussianBlur4998" />
    </filter>
    <linearGradient
       inkscape:collect="always"
       xlink:href="#linearGradient5006"
       id="linearGradient5008"
       x1="-90.07122"
       y1="129.22701"
       x2="-88.766434"
       y2="107.39889"
       gradientUnits="userSpaceOnUse" />
    <linearGradient
       inkscape:collect="always"
       xlink:href="#linearGradient5006"
       id="linearGradient5016"
       x1="132.08582"
       y1="133.86282"
       x2="130.37843"
       y2="110.72796"
       gradientUnits="userSpaceOnUse" />
    <filter
       inkscape:collect="always"
       style="color-interpolation-filters:sRGB"
       id="filter5065"
       x="-0.060369905"
       width="1.1207398"
       y="-0.2342585"
       height="1.4685169">
      <feGaussianBlur
         inkscape:collect="always"
         stdDeviation="1.6662909"
         id="feGaussianBlur5067" />
    </filter>
  </defs>
  <sodipodi:namedview
     id="base"
     pagecolor="#ffffff"
     bordercolor="#666666"
     borderopacity="1.0"
     inkscape:pageopacity="0.0"
     inkscape:pageshadow="2"
     inkscape:zoom="0.49497475"
     inkscape:cx="228.19734"
     inkscape:cy="319.83976"
     inkscape:document-units="mm"
     inkscape:current-layer="layer1"
     showgrid="false"
     inkscape:window-width="1920"
     inkscape:window-height="1017"
     inkscape:window-x="-8"
     inkscape:window-y="-8"
     inkscape:window-maximized="1"
     fit-margin-top="0"
     fit-margin-left="0"
     fit-margin-right="0"
     fit-margin-bottom="0" />
  <metadata
     id="metadata5">
    <rdf:RDF>
      <cc:Work
         rdf:about="">
        <dc:format>image/svg+xml</dc:format>
        <dc:type
           rdf:resource="http://purl.org/dc/dcmitype/StillImage" />
        <dc:title></dc:title>
      </cc:Work>
    </rdf:RDF>
  </metadata>
  <g
     inkscape:label="Layer 1"
     inkscape:groupmode="layer"
     id="layer1"
     transform="translate(-38.653976,-67.850282)">
    <g
       id="g5114"
       transform="matrix(0.64996291,0,0,0.64996291,15.267478,48.232745)"
       style="stroke-width:1.5385493">
      <g
         transform="translate(-1.2870447)"
         id="g4867"
         style="stroke-width:1.5385493">
        <ellipse
           style="opacity:1;fill:#ff6600;fill-opacity:1;fill-rule:nonzero;stroke:none;stroke-width:2.85492802;stroke-linecap:round;stroke-linejoin:round;stroke-miterlimit:4;stroke-dasharray:none;stroke-opacity:1"
           id="path1104-1-9-6"
           cx="277.03827"
           cy="455.64395"
           rx="21.21813"
           ry="7.7359796"
           transform="matrix(0.67498115,-0.73783497,-0.20626909,0.97849531,0,0)"
           inkscape:transform-center-x="-12.516578"
           inkscape:transform-center-y="0.24326992" />
        <ellipse
           transform="matrix(0.98856697,-0.15078245,0.14533282,0.98938282,0,0)"
           ry="16.602858"
           rx="34.125919"
           cy="265.7912"
           cx="32.837513"
           id="ellipse4858"
           style="opacity:1;fill:#ff6600;fill-opacity:1;fill-rule:nonzero;stroke:none;stroke-width:2.03538799;stroke-linecap:round;stroke-linejoin:round;stroke-miterlimit:4;stroke-dasharray:none;stroke-opacity:1" />
      </g>
      <g
         transform="matrix(-1,0,0,1,222.39911,-8.0180858)"
         id="g4873"
         style="stroke-width:1.5385493">
        <ellipse
           inkscape:transform-center-y="0.24326992"
           inkscape:transform-center-x="-12.516578"
           transform="matrix(0.67498115,-0.73783497,-0.20626909,0.97849531,0,0)"
           ry="7.7359796"
           rx="21.21813"
           cy="455.64395"
           cx="277.03827"
           id="ellipse4869"
           style="opacity:1;fill:#ff6600;fill-opacity:1;fill-rule:nonzero;stroke:none;stroke-width:2.85492802;stroke-linecap:round;stroke-linejoin:round;stroke-miterlimit:4;stroke-dasharray:none;stroke-opacity:1" />
        <ellipse
           style="opacity:1;fill:#ff6600;fill-opacity:1;fill-rule:nonzero;stroke:none;stroke-width:2.03538799;stroke-linecap:round;stroke-linejoin:round;stroke-miterlimit:4;stroke-dasharray:none;stroke-opacity:1"
           id="ellipse4871"
           cx="32.837513"
           cy="265.7912"
           rx="34.125919"
           ry="16.602858"
           transform="matrix(0.98856697,-0.15078245,0.14533282,0.98938282,0,0)" />
      </g>
      <path
         inkscape:connector-curvature="0"
         id="path1104-1-7-7"
         d="m 98.93878,30.196067 a 31.544987,6.0416177 79.150298 0 0 -1.911509,1.773536 31.544987,6.0416177 79.150298 0 0 3.563089,39.588798 31.544987,6.0416177 79.150298 0 0 9.74824,20.579105 6.0808837,31.341292 25.144112 0 0 2.42828,-0.795817 6.0808837,31.341292 25.144112 0 0 20.35018,-34.652665 6.0808837,31.341292 25.144112 0 0 1.07073,-20.553268 6.0808837,31.341292 25.144112 0 0 -13.07723,18.702735 6.1498543,30.989799 7.0807443 0 0 0.19482,-2.799312 6.1498543,30.989799 7.0807443 0 0 -5.30769,-20.392036 6.1498543,30.989799 7.0807443 0 0 -6.87452,22.37176 31.544987,6.0416177 79.150298 0 0 -0.77204,-3.208073 31.544987,6.0416177 79.150298 0 0 -9.41235,-20.614763 z"
         style="opacity:1;fill:#ff6600;fill-opacity:1;fill-rule:nonzero;stroke:none;stroke-width:2.03537202;stroke-linecap:round;stroke-linejoin:round;stroke-miterlimit:4;stroke-dasharray:none;stroke-opacity:1" />
      <ellipse
         ry="62.229851"
         rx="49.668186"
         cy="132.2592"
         cx="110.55603"
         id="path815-3-0"
         style="opacity:1;fill:#800000;fill-opacity:1;fill-rule:nonzero;stroke:none;stroke-width:2.03537273;stroke-linecap:round;stroke-linejoin:round;stroke-miterlimit:4;stroke-dasharray:none;stroke-opacity:1" />
      <ellipse
         ry="62.229851"
         rx="63.031658"
         cy="168.60786"
         cx="110.55603"
         id="path815-3-0-7"
         style="opacity:1;fill:#800000;fill-opacity:1;fill-rule:nonzero;stroke:none;stroke-width:2.03537226;stroke-linecap:round;stroke-linejoin:round;stroke-miterlimit:4;stroke-dasharray:none;stroke-opacity:1" />
      <ellipse
         ry="15.635267"
         rx="18.842501"
         transform="scale(-1,1)"
         cy="114.10796"
         cx="-90.599998"
         id="path967-4"
         style="opacity:1;fill:url(#linearGradient5008);fill-opacity:1;fill-rule:nonzero;stroke:none;stroke-width:2.03537273;stroke-linecap:round;stroke-linejoin:round;stroke-miterlimit:4;stroke-dasharray:none;stroke-opacity:1" />
      <circle
         r="18.976137"
         cy="114.20246"
         cx="130.37843"
         id="path967-4-0"
         style="opacity:1;fill:url(#linearGradient5016);fill-opacity:1;fill-rule:nonzero;stroke:none;stroke-width:2.03537273;stroke-linecap:round;stroke-linejoin:round;stroke-miterlimit:4;stroke-dasharray:none;stroke-opacity:1" />
      <circle
         transform="scale(-1,1)"
         r="6.0851541"
         cy="120.29958"
         cx="-122.09916"
         id="path984-1"
         style="opacity:1;fill:#000000;fill-opacity:1;fill-rule:nonzero;stroke:#000000;stroke-width:2.03537273;stroke-linecap:round;stroke-linejoin:round;stroke-miterlimit:4;stroke-dasharray:none;stroke-opacity:1" />
      <circle
         r="6.0851541"
         cy="120.29958"
         cx="97.878975"
         id="path984-1-6"
         style="opacity:1;fill:#000000;fill-opacity:1;fill-rule:nonzero;stroke:#000000;stroke-width:2.03537273;stroke-linecap:round;stroke-linejoin:round;stroke-miterlimit:4;stroke-dasharray:none;stroke-opacity:1" />
      <g
         transform="translate(1.2986064,1.3363476)"
         id="g4960"
         style="fill:#550000;stroke:none;stroke-width:1.5385493;filter:url(#filter4970)">
        <path
           inkscape:connector-curvature="0"
           id="path4956"
           d="m 92.355416,133.86282 c -12.910609,18.3435 -10.858474,7.45227 6.16913,35.12241 19.369224,31.47524 8.022934,31.47524 27.392134,0 17.02765,-27.67016 19.07979,-16.77886 6.16913,-35.12241 z"
           style="opacity:1;vector-effect:none;fill:#550000;fill-opacity:1;fill-rule:nonzero;stroke:none;stroke-width:0.40771556;stroke-linecap:round;stroke-linejoin:round;stroke-miterlimit:4;stroke-dasharray:none;stroke-dashoffset:0;stroke-opacity:1" />
        <path
           style="opacity:1;vector-effect:none;fill:#550000;fill-opacity:1;fill-rule:nonzero;stroke:none;stroke-width:0.40771556;stroke-linecap:round;stroke-linejoin:round;stroke-miterlimit:4;stroke-dasharray:none;stroke-dashoffset:0;stroke-opacity:1"
           d="m 97.237273,133.86282 c -9.73784,13.8356 -8.190015,5.62088 4.653077,26.49111 14.60925,23.74023 6.0513,23.74023 20.66054,0 12.84312,-20.87025 14.39095,-12.65547 4.65307,-26.49111 z"
           id="path4958"
           inkscape:connector-curvature="0" />
      </g>
      <g
         style="fill:#550000;stroke-width:1.5385493;filter:url(#filter4996)"
         id="g4982"
         transform="translate(2.3603294,2.2678571)">
        <g
           style="fill:#550000;fill-opacity:1;stroke-width:1.5385493"
           transform="translate(-38.898396,59.736683)"
           id="g4976">
          <circle
             style="opacity:1;fill:#550000;fill-opacity:1;fill-rule:nonzero;stroke:none;stroke-width:2.03537273;stroke-linecap:round;stroke-linejoin:round;stroke-miterlimit:4;stroke-dasharray:none;stroke-opacity:1"
             id="circle4974"
             cx="138.83682"
             cy="99.304092"
             r="18.976137" />
        </g>
        <g
           id="g4980"
           transform="translate(-17.353753,59.736683)"
           style="fill:#550000;stroke-width:1.5385493">
          <circle
             r="18.976137"
             cy="99.304092"
             cx="138.83682"
             id="circle4978"
             style="opacity:1;fill:#550000;fill-opacity:1;fill-rule:nonzero;stroke:none;stroke-width:2.03537273;stroke-linecap:round;stroke-linejoin:round;stroke-miterlimit:4;stroke-dasharray:none;stroke-opacity:1" />
        </g>
      </g>
      <g
         transform="translate(1.509883)"
         id="g4837"
         style="stroke-width:1.5385493">
        <g
           id="g1654"
           transform="translate(-38.898396,59.736683)"
           style="fill:#d40000;fill-opacity:1;stroke-width:1.5385493">
          <circle
             r="18.976137"
             cy="99.304092"
             cx="138.83682"
             id="path1649"
             style="opacity:1;fill:#d40000;fill-opacity:1;fill-rule:nonzero;stroke:none;stroke-width:2.03537273;stroke-linecap:round;stroke-linejoin:round;stroke-miterlimit:4;stroke-dasharray:none;stroke-opacity:1" />
        </g>
        <g
           style="fill:#d40000;stroke-width:1.5385493"
           transform="translate(-17.353753,59.736683)"
           id="g4831">
          <circle
             style="opacity:1;fill:#d40000;fill-opacity:1;fill-rule:nonzero;stroke:none;stroke-width:2.03537273;stroke-linecap:round;stroke-linejoin:round;stroke-miterlimit:4;stroke-dasharray:none;stroke-opacity:1"
             id="circle4829"
             cx="138.83682"
             cy="99.304092"
             r="18.976137" />
        </g>
      </g>
      <g
         style="stroke:none;stroke-width:1.5385493"
         id="g4827">
        <path
           style="opacity:1;vector-effect:none;fill:#ff6600;fill-opacity:1;fill-rule:nonzero;stroke:none;stroke-width:0.40771556;stroke-linecap:round;stroke-linejoin:round;stroke-miterlimit:4;stroke-dasharray:none;stroke-dashoffset:0;stroke-opacity:1"
           d="m 92.355416,133.86282 c -12.910609,18.3435 -10.858474,7.45227 6.16913,35.12241 19.369224,31.47524 8.022934,31.47524 27.392134,0 17.02765,-27.67016 19.07979,-16.77886 6.16913,-35.12241 z"
           id="path4801"
           inkscape:connector-curvature="0" />
        <path
           inkscape:connector-curvature="0"
           id="path4823"
           d="m 97.237273,133.86282 c -9.73784,13.8356 -8.190015,5.62088 4.653077,26.49111 14.60925,23.74023 6.0513,23.74023 20.66054,0 12.84312,-20.87025 14.39095,-12.65547 4.65307,-26.49111 z"
           style="opacity:1;vector-effect:none;fill:#ffff00;fill-opacity:1;fill-rule:nonzero;stroke:none;stroke-width:0.40771556;stroke-linecap:round;stroke-linejoin:round;stroke-miterlimit:4;stroke-dasharray:none;stroke-dashoffset:0;stroke-opacity:1" />
      </g>
      <g
         id="g4924"
         style="stroke-width:1.5385493">
        <path
           style="fill:#800000;fill-opacity:1;fill-rule:evenodd;stroke:none;stroke-width:0.40707451px;stroke-linecap:butt;stroke-linejoin:miter;stroke-opacity:1"
           d="m 154.59853,146.62691 c 12.49374,-28.6395 36.27774,-51.658314 66.81738,-58.264753 49.42036,-10.690782 71.07247,46.220743 65.74831,58.264753 0,0 -40.15402,-21.90175 -64.09534,-18.74981 -24.13808,3.17784 -48.27981,49.0839 -69.13363,36.51954 -5.07708,-3.05892 -1.70678,-12.33682 0.66328,-17.76973 z"
           id="path4915"
           inkscape:connector-curvature="0"
           sodipodi:nodetypes="ssssss" />
        <path
           sodipodi:nodetypes="ssssss"
           inkscape:connector-curvature="0"
           id="path4917"
           d="m 155.08919,174.96757 c 10.31062,-23.63511 29.93866,-42.63167 55.14188,-48.08372 40.78477,-8.8227 58.65344,38.14425 54.25962,48.08372 0,0 -33.13761,-18.07469 -52.89549,-15.47352 -19.92025,2.62256 -39.84351,40.50711 -57.05339,30.13821 -4.18992,-2.52441 -1.40854,-10.18111 0.54738,-14.66469 z"
           style="fill:#800000;fill-opacity:1;fill-rule:evenodd;stroke:none;stroke-width:0.40707451px;stroke-linecap:butt;stroke-linejoin:miter;stroke-opacity:1" />
        <path
           style="fill:#800000;fill-opacity:1;fill-rule:evenodd;stroke:none;stroke-width:0.40707451px;stroke-linecap:butt;stroke-linejoin:miter;stroke-opacity:1"
           d="m 146.53818,191.8927 c 7.99507,-18.32714 23.21505,-33.05747 42.75815,-37.2851 31.62534,-6.8413 45.48107,29.57784 42.07401,37.2851 0,0 -25.69558,-14.01548 -41.01624,-11.99848 -15.44657,2.03359 -30.89547,31.41004 -44.24037,23.36978 -3.24895,-1.95747 -1.09221,-7.89464 0.42445,-11.3713 z"
           id="path4919"
           inkscape:connector-curvature="0"
           sodipodi:nodetypes="ssssss" />
      </g>
      <g
         style="fill:#aa4400;stroke-width:1.54478192;filter:url(#filter5065)"
         transform="matrix(0.99596533,0,0,0.99596533,0.37923958,2.0485963)"
         id="g5055">
        <path
           inkscape:connector-curvature="0"
           id="path5051"
           d="m 130.27072,85.192446 a 18.976137,18.976137 0 0 0 -18.87947,17.071304 22.377922,22.377922 0 0 1 20.95841,-14.61409 22.377922,22.377922 0 0 1 11.32799,3.106788 18.976137,18.976137 0 0 0 -13.40693,-5.564002 z"
           style="opacity:1;fill:#aa4400;fill-opacity:1;fill-rule:nonzero;stroke:none;stroke-width:2.04361773;stroke-linecap:round;stroke-linejoin:round;stroke-miterlimit:4;stroke-dasharray:none;stroke-opacity:1" />
        <path
           style="opacity:1;fill:#aa4400;fill-opacity:1;fill-rule:nonzero;stroke:none;stroke-width:2.04361773;stroke-linecap:round;stroke-linejoin:round;stroke-miterlimit:4;stroke-dasharray:none;stroke-opacity:1"
           d="M 90.841341,85.192447 A 18.976137,18.976137 0 0 1 109.72082,102.26375 22.377922,22.377922 0 0 0 88.762401,87.649661 22.377922,22.377922 0 0 0 77.434411,90.756449 18.976137,18.976137 0 0 1 90.841341,85.192447 Z"
           id="path5053"
           inkscape:connector-curvature="0" />
      </g>
      <g
         id="g5049"
         style="stroke-width:1.5385493">
        <path
           style="opacity:1;fill:#ff6600;fill-opacity:1;fill-rule:nonzero;stroke:none;stroke-width:2.03537273;stroke-linecap:round;stroke-linejoin:round;stroke-miterlimit:4;stroke-dasharray:none;stroke-opacity:1"
           d="m 130.27072,85.192446 a 18.976137,18.976137 0 0 0 -18.87947,17.071304 22.377922,22.377922 0 0 1 20.95841,-14.61409 22.377922,22.377922 0 0 1 11.32799,3.106788 18.976137,18.976137 0 0 0 -13.40693,-5.564002 z"
           id="circle5018"
           inkscape:connector-curvature="0" />
        <path
           inkscape:connector-curvature="0"
           id="path5027"
           d="M 90.841341,85.192447 A 18.976137,18.976137 0 0 1 109.72082,102.26375 22.377922,22.377922 0 0 0 88.762401,87.649661 22.377922,22.377922 0 0 0 77.434411,90.756449 18.976137,18.976137 0 0 1 90.841341,85.192447 Z"
           style="opacity:1;fill:#ff6600;fill-opacity:1;fill-rule:nonzero;stroke:none;stroke-width:2.03537273;stroke-linecap:round;stroke-linejoin:round;stroke-miterlimit:4;stroke-dasharray:none;stroke-opacity:1" />
      </g>
    </g>
  </g>
</svg>
