<?xml version="1.0" encoding="UTF-8" standalone="no"?>
<!-- Created with Inkscape (http://www.inkscape.org/) -->

<svg
   xmlns:dc="http://purl.org/dc/elements/1.1/"
   xmlns:cc="http://creativecommons.org/ns#"
   xmlns:rdf="http://www.w3.org/1999/02/22-rdf-syntax-ns#"
   xmlns:svg="http://www.w3.org/2000/svg"
   xmlns="http://www.w3.org/2000/svg"
   xmlns:sodipodi="http://sodipodi.sourceforge.net/DTD/sodipodi-0.dtd"
   xmlns:inkscape="http://www.inkscape.org/namespaces/inkscape"
   width="161.67598mm"
   height="174.17299mm"
   viewBox="0 0 161.67598 174.17299"
   version="1.1"
   id="svg8"
   inkscape:version="0.92.4 (5da689c313, 2019-01-14)"
   sodipodi:docname="ant.svg"
   inkscape:export-filename="E:\munka\my_svg_drawings\ant.png"
   inkscape:export-xdpi="9.3332491"
   inkscape:export-ydpi="9.3332491">
  <defs
     id="defs2" />
  <sodipodi:namedview
     id="base"
     pagecolor="#ffffff"
     bordercolor="#666666"
     borderopacity="1.0"
     inkscape:pageopacity="0.0"
     inkscape:pageshadow="2"
     inkscape:zoom="0.9899495"
     inkscape:cx="416.82409"
     inkscape:cy="359.07605"
     inkscape:document-units="mm"
     inkscape:current-layer="layer1"
     showgrid="false"
     inkscape:window-width="1920"
     inkscape:window-height="1017"
     inkscape:window-x="-8"
     inkscape:window-y="-8"
     inkscape:window-maximized="1"
     fit-margin-top="0"
     fit-margin-left="0"
     fit-margin-right="0"
     fit-margin-bottom="0" />
  <metadata
     id="metadata5">
    <rdf:RDF>
      <cc:Work
         rdf:about="">
        <dc:format>image/svg+xml</dc:format>
        <dc:type
           rdf:resource="http://purl.org/dc/dcmitype/StillImage" />
        <dc:title></dc:title>
      </cc:Work>
    </rdf:RDF>
  </metadata>
  <g
     inkscape:label="Layer 1"
     inkscape:groupmode="layer"
     id="layer1"
     transform="translate(-40.443803,-39.474576)">
    <g
       id="g1045"
       transform="matrix(0.92278222,0,0,0.92278222,206.84066,23.896338)"
       style="stroke-width:1.08367932">
      <g
         transform="translate(39.277573,-15.241555)"
         id="g936"
         style="stroke-width:1.08367932">
        <ellipse
           ry="14.910058"
           rx="3.6421514"
           cy="194.57706"
           cx="-162.80513"
           id="ellipse932"
           style="opacity:1;vector-effect:none;fill:#333333;fill-opacity:1;fill-rule:nonzero;stroke:none;stroke-width:2.86723471;stroke-linecap:round;stroke-linejoin:round;stroke-miterlimit:4;stroke-dasharray:none;stroke-dashoffset:0;stroke-opacity:1" />
        <ellipse
           transform="rotate(90)"
           style="opacity:1;vector-effect:none;fill:#333333;fill-opacity:1;fill-rule:nonzero;stroke:none;stroke-width:2.86723471;stroke-linecap:round;stroke-linejoin:round;stroke-miterlimit:4;stroke-dasharray:none;stroke-dashoffset:0;stroke-opacity:1"
           id="ellipse934"
           cx="207.34985"
           cy="159.18819"
           rx="3.3202276"
           ry="9.8397589" />
      </g>
      <g
         transform="translate(83.931534,-13.346588)"
         id="g930"
         style="stroke-width:1.08367932">
        <ellipse
           ry="14.910058"
           rx="3.6421514"
           cy="194.57706"
           cx="-162.80513"
           id="ellipse926"
           style="opacity:1;vector-effect:none;fill:#333333;fill-opacity:1;fill-rule:nonzero;stroke:none;stroke-width:2.86723471;stroke-linecap:round;stroke-linejoin:round;stroke-miterlimit:4;stroke-dasharray:none;stroke-dashoffset:0;stroke-opacity:1" />
        <ellipse
           transform="rotate(90)"
           style="opacity:1;vector-effect:none;fill:#333333;fill-opacity:1;fill-rule:nonzero;stroke:none;stroke-width:2.86723471;stroke-linecap:round;stroke-linejoin:round;stroke-miterlimit:4;stroke-dasharray:none;stroke-dashoffset:0;stroke-opacity:1"
           id="ellipse928"
           cx="207.34985"
           cy="159.18819"
           rx="3.3202276"
           ry="9.8397589" />
      </g>
      <g
         transform="translate(9.0596267,-11.608522)"
         id="g918"
         style="stroke-width:1.08367932">
        <ellipse
           ry="14.910058"
           rx="3.6421514"
           cy="194.57706"
           cx="-162.80513"
           id="ellipse914"
           style="opacity:1;vector-effect:none;fill:#333333;fill-opacity:1;fill-rule:nonzero;stroke:none;stroke-width:2.86723471;stroke-linecap:round;stroke-linejoin:round;stroke-miterlimit:4;stroke-dasharray:none;stroke-dashoffset:0;stroke-opacity:1" />
        <ellipse
           transform="rotate(90)"
           style="opacity:1;vector-effect:none;fill:#333333;fill-opacity:1;fill-rule:nonzero;stroke:none;stroke-width:2.86723471;stroke-linecap:round;stroke-linejoin:round;stroke-miterlimit:4;stroke-dasharray:none;stroke-dashoffset:0;stroke-opacity:1"
           id="ellipse916"
           cx="207.34985"
           cy="159.18819"
           rx="3.3202276"
           ry="9.8397589" />
      </g>
      <g
         id="g974"
         style="stroke-width:1.08367932">
        <ellipse
           style="opacity:1;vector-effect:none;fill:#333333;fill-opacity:1;fill-rule:nonzero;stroke:none;stroke-width:2.86723471;stroke-linecap:round;stroke-linejoin:round;stroke-miterlimit:4;stroke-dasharray:none;stroke-dashoffset:0;stroke-opacity:1"
           id="path834"
           cx="-91.105499"
           cy="159.93857"
           rx="32.316963"
           ry="26.269344" />
        <path
           style="opacity:1;vector-effect:none;fill:#1a1a1a;fill-opacity:1;fill-rule:nonzero;stroke:none;stroke-width:10.8367939;stroke-linecap:round;stroke-linejoin:round;stroke-miterlimit:4;stroke-dasharray:none;stroke-dashoffset:0;stroke-opacity:1"
           d="m -428.18945,154.9375 a 122.14285,99.285711 0 0 1 33.10937,67.86523 122.14285,99.285711 0 0 1 -122.14258,99.28516 122.14285,99.285711 0 0 1 -66.81054,-16.26758 122.14285,99.285711 0 0 0 89.0332,31.41992 122.14285,99.285711 0 0 0 122.14258,-99.28515 122.14285,99.285711 0 0 0 -55.33203,-83.01758 z"
           transform="matrix(0.26458333,0,0,0.26458333,39.863254,96.979629)"
           id="ellipse892"
           inkscape:connector-curvature="0" />
        <ellipse
           style="opacity:1;vector-effect:none;fill:#4d4d4d;fill-opacity:1;fill-rule:nonzero;stroke:none;stroke-width:2.86723447;stroke-linecap:round;stroke-linejoin:round;stroke-miterlimit:4;stroke-dasharray:none;stroke-dashoffset:0;stroke-opacity:1"
           id="ellipse899"
           cx="-100.54339"
           cy="149.2478"
           rx="11.098578"
           ry="9.5420713" />
      </g>
      <g
         transform="translate(0.12691917,-0.51971726)"
         id="g969"
         style="stroke-width:1.08367932">
        <ellipse
           style="opacity:1;vector-effect:none;fill:#333333;fill-opacity:1;fill-rule:nonzero;stroke:none;stroke-width:2.86723471;stroke-linecap:round;stroke-linejoin:round;stroke-miterlimit:4;stroke-dasharray:none;stroke-dashoffset:0;stroke-opacity:1"
           id="path832"
           cx="-149.4537"
           cy="159.93857"
           rx="30.994045"
           ry="26.647322" />
        <path
           style="opacity:1;vector-effect:none;fill:#1a1a1a;fill-opacity:1;fill-rule:nonzero;stroke:none;stroke-width:2.86723471;stroke-linecap:round;stroke-linejoin:round;stroke-miterlimit:4;stroke-dasharray:none;stroke-dashoffset:0;stroke-opacity:1"
           d="m -129.552,139.51502 a 30.994045,26.647322 0 0 1 5.47977,15.07815 30.994045,26.647322 0 0 1 -30.99397,26.64747 30.994045,26.647322 0 0 1 -19.90163,-6.2234 30.994045,26.647322 0 0 0 25.51421,11.5688 30.994045,26.647322 0 0 0 30.99397,-26.64746 30.994045,26.647322 0 0 0 -11.09235,-20.42356 z"
           id="ellipse887"
           inkscape:connector-curvature="0" />
        <ellipse
           ry="9.5420713"
           rx="11.098578"
           cy="150.04961"
           cx="-162.01538"
           id="ellipse897"
           style="opacity:1;vector-effect:none;fill:#4d4d4d;fill-opacity:1;fill-rule:nonzero;stroke:none;stroke-width:2.86723447;stroke-linecap:round;stroke-linejoin:round;stroke-miterlimit:4;stroke-dasharray:none;stroke-dashoffset:0;stroke-opacity:1" />
      </g>
      <g
         transform="translate(-3.8323335,-5.3584841)"
         id="g912"
         style="stroke-width:1.08367932">
        <ellipse
           style="opacity:1;vector-effect:none;fill:#333333;fill-opacity:1;fill-rule:nonzero;stroke:none;stroke-width:2.86723471;stroke-linecap:round;stroke-linejoin:round;stroke-miterlimit:4;stroke-dasharray:none;stroke-dashoffset:0;stroke-opacity:1"
           id="path906"
           cx="-162.80513"
           cy="194.57706"
           rx="3.6421514"
           ry="14.910058" />
        <ellipse
           ry="9.8397589"
           rx="3.3202276"
           cy="159.18819"
           cx="207.34985"
           id="ellipse908"
           style="opacity:1;vector-effect:none;fill:#333333;fill-opacity:1;fill-rule:nonzero;stroke:none;stroke-width:2.86723471;stroke-linecap:round;stroke-linejoin:round;stroke-miterlimit:4;stroke-dasharray:none;stroke-dashoffset:0;stroke-opacity:1"
           transform="rotate(90)" />
      </g>
      <g
         id="g924"
         transform="translate(67.285522,-5.0406096)"
         style="stroke-width:1.08367932">
        <ellipse
           style="opacity:1;vector-effect:none;fill:#333333;fill-opacity:1;fill-rule:nonzero;stroke:none;stroke-width:2.86723471;stroke-linecap:round;stroke-linejoin:round;stroke-miterlimit:4;stroke-dasharray:none;stroke-dashoffset:0;stroke-opacity:1"
           id="ellipse920"
           cx="-162.80513"
           cy="194.57706"
           rx="3.6421514"
           ry="14.910058" />
        <ellipse
           ry="9.8397589"
           rx="3.3202276"
           cy="159.18819"
           cx="207.34985"
           id="ellipse922"
           style="opacity:1;vector-effect:none;fill:#333333;fill-opacity:1;fill-rule:nonzero;stroke:none;stroke-width:2.86723471;stroke-linecap:round;stroke-linejoin:round;stroke-miterlimit:4;stroke-dasharray:none;stroke-dashoffset:0;stroke-opacity:1"
           transform="rotate(90)" />
      </g>
      <g
         id="g942"
         transform="translate(27.43991,-5.8194899)"
         style="stroke-width:1.08367932">
        <ellipse
           style="opacity:1;vector-effect:none;fill:#333333;fill-opacity:1;fill-rule:nonzero;stroke:none;stroke-width:2.86723471;stroke-linecap:round;stroke-linejoin:round;stroke-miterlimit:4;stroke-dasharray:none;stroke-dashoffset:0;stroke-opacity:1"
           id="ellipse938"
           cx="-162.80513"
           cy="194.57706"
           rx="3.6421514"
           ry="14.910058" />
        <ellipse
           ry="9.8397589"
           rx="3.3202276"
           cy="159.18819"
           cx="207.34985"
           id="ellipse940"
           style="opacity:1;vector-effect:none;fill:#333333;fill-opacity:1;fill-rule:nonzero;stroke:none;stroke-width:2.86723471;stroke-linecap:round;stroke-linejoin:round;stroke-miterlimit:4;stroke-dasharray:none;stroke-dashoffset:0;stroke-opacity:1"
           transform="rotate(90)" />
      </g>
      <g
         transform="translate(-1.1438934)"
         id="g996"
         style="stroke-width:1.08367932">
        <g
           id="g982"
           style="stroke-width:1.08367932">
          <circle
             r="12.723794"
             cy="29.605608"
             cx="-98.582352"
             id="path976"
             style="opacity:1;vector-effect:none;fill:#333333;fill-opacity:1;fill-rule:nonzero;stroke:none;stroke-width:2.86723447;stroke-linecap:round;stroke-linejoin:round;stroke-miterlimit:4;stroke-dasharray:none;stroke-dashoffset:0;stroke-opacity:1" />
          <path
             sodipodi:nodetypes="cc"
             inkscape:connector-curvature="0"
             id="path978"
             d="m -99.517803,29.605609 c 30.01472,11.004378 29.886069,28.288626 35.546847,44.366742"
             style="fill:none;fill-rule:evenodd;stroke:#333333;stroke-width:5.73446941;stroke-linecap:round;stroke-linejoin:miter;stroke-miterlimit:4;stroke-dasharray:none;stroke-opacity:1" />
        </g>
        <g
           id="g988"
           transform="matrix(-1,0,0,1,-115.28927,0)"
           style="stroke-width:1.08367932">
          <circle
             style="opacity:1;vector-effect:none;fill:#333333;fill-opacity:1;fill-rule:nonzero;stroke:none;stroke-width:2.86723447;stroke-linecap:round;stroke-linejoin:round;stroke-miterlimit:4;stroke-dasharray:none;stroke-dashoffset:0;stroke-opacity:1"
             id="circle984"
             cx="-98.582352"
             cy="29.605608"
             r="12.723794" />
          <path
             style="fill:none;fill-rule:evenodd;stroke:#333333;stroke-width:5.73446941;stroke-linecap:round;stroke-linejoin:miter;stroke-miterlimit:4;stroke-dasharray:none;stroke-opacity:1"
             d="m -99.517803,29.605609 c 30.01472,11.004378 29.886069,28.288626 35.546847,44.366742"
             id="path986"
             inkscape:connector-curvature="0"
             sodipodi:nodetypes="cc" />
        </g>
      </g>
      <ellipse
         ry="41.955357"
         rx="53.672619"
         cy="106.45493"
         cx="-58.788528"
         id="path836"
         style="opacity:1;vector-effect:none;fill:#333333;fill-opacity:1;fill-rule:nonzero;stroke:none;stroke-width:2.86723471;stroke-linecap:round;stroke-linejoin:round;stroke-miterlimit:4;stroke-dasharray:none;stroke-dashoffset:0;stroke-opacity:1" />
      <path
         id="ellipse944"
         transform="matrix(0.26458333,0,0,0.26458333,39.863254,96.979629)"
         d="m -182.94922,-19.673828 a 202.85714,158.57143 0 0 1 4.37695,31.914062 A 202.85714,158.57143 0 0 1 -381.42773,170.8125 202.85714,158.57143 0 0 1 -571.33398,67.740234 202.85714,158.57143 0 0 0 -372.85742,194.38281 202.85714,158.57143 0 0 0 -170,35.8125 202.85714,158.57143 0 0 0 -182.94922,-19.673828 Z"
         style="opacity:1;vector-effect:none;fill:#1a1a1a;fill-opacity:1;fill-rule:nonzero;stroke:none;stroke-width:10.8367939;stroke-linecap:round;stroke-linejoin:round;stroke-miterlimit:4;stroke-dasharray:none;stroke-dashoffset:0;stroke-opacity:1"
         inkscape:connector-curvature="0" />
      <g
         transform="translate(-0.46517609)"
         id="g964"
         style="stroke-width:1.08367932">
        <g
           id="g875"
           transform="translate(-9.4494047,-9.5869733)"
           style="stroke-width:1.08367932">
          <circle
             style="opacity:1;fill:#ffffff;fill-opacity:1;fill-rule:nonzero;stroke:none;stroke-width:1.43361759;stroke-linecap:round;stroke-linejoin:round;stroke-miterlimit:4;stroke-dasharray:none;stroke-opacity:1"
             id="circle857"
             cx="-73.195381"
             cy="112.49785"
             r="23.314226" />
          <circle
             style="opacity:1;fill:#000000;fill-opacity:1;fill-rule:nonzero;stroke:#000000;stroke-width:1.43361759;stroke-linecap:round;stroke-linejoin:round;stroke-miterlimit:4;stroke-dasharray:none;stroke-opacity:1"
             id="circle859"
             cx="-64.233772"
             cy="118.67197"
             r="5.0084767" />
          <path
             id="circle861"
             transform="matrix(0.26458333,0,0,0.26458333,39.863254,96.979629)"
             d="m -427.30859,-29.464844 a 88.11676,88.11676 0 0 0 -88.11719,88.117188 88.11676,88.11676 0 0 0 88.11719,88.115236 88.11676,88.11676 0 0 0 6.29492,-0.22852 88.11676,88.11676 0 0 1 -83.55274,-87.886716 88.11676,88.11676 0 0 1 81.82422,-87.888672 88.11676,88.11676 0 0 0 -4.5664,-0.228516 z"
             style="opacity:1;fill:#b3b3b3;fill-opacity:1;fill-rule:nonzero;stroke:none;stroke-width:5.41839743;stroke-linecap:round;stroke-linejoin:round;stroke-miterlimit:4;stroke-dasharray:none;stroke-opacity:1"
             inkscape:connector-curvature="0" />
          <path
             id="circle866"
             transform="matrix(0.26458333,0,0,0.26458333,39.863254,96.979629)"
             d="m -427.30859,-29.464844 a 88.11676,88.11676 0 0 0 -1.25391,0.04492 88.11676,88.11676 0 0 1 87.22852,88.072266 88.11676,88.11676 0 0 1 -86.86329,88.070318 88.11676,88.11676 0 0 0 0.88868,0.0449 88.11676,88.11676 0 0 0 88.11718,-88.115238 88.11676,88.11676 0 0 0 -88.11718,-88.117188 z"
             style="opacity:1;fill:#ececec;fill-opacity:1;fill-rule:nonzero;stroke:none;stroke-width:5.41839743;stroke-linecap:round;stroke-linejoin:round;stroke-miterlimit:4;stroke-dasharray:none;stroke-opacity:1"
             inkscape:connector-curvature="0" />
        </g>
        <g
           id="g885"
           transform="matrix(-1,0,0,1,-107.1973,-9.5869733)"
           style="stroke-width:1.08367932">
          <circle
             r="23.314226"
             cy="112.49785"
             cx="-73.195381"
             id="circle877"
             style="opacity:1;fill:#ffffff;fill-opacity:1;fill-rule:nonzero;stroke:none;stroke-width:1.43361759;stroke-linecap:round;stroke-linejoin:round;stroke-miterlimit:4;stroke-dasharray:none;stroke-opacity:1" />
          <circle
             r="5.0084767"
             cy="118.67197"
             cx="-64.233772"
             id="circle879"
             style="opacity:1;fill:#000000;fill-opacity:1;fill-rule:nonzero;stroke:#000000;stroke-width:1.43361759;stroke-linecap:round;stroke-linejoin:round;stroke-miterlimit:4;stroke-dasharray:none;stroke-opacity:1" />
          <path
             style="opacity:1;fill:#b3b3b3;fill-opacity:1;fill-rule:nonzero;stroke:none;stroke-width:5.41839743;stroke-linecap:round;stroke-linejoin:round;stroke-miterlimit:4;stroke-dasharray:none;stroke-opacity:1"
             d="m -427.30859,-29.464844 a 88.11676,88.11676 0 0 0 -88.11719,88.117188 88.11676,88.11676 0 0 0 88.11719,88.115236 88.11676,88.11676 0 0 0 6.29492,-0.22852 88.11676,88.11676 0 0 1 -83.55274,-87.886716 88.11676,88.11676 0 0 1 81.82422,-87.888672 88.11676,88.11676 0 0 0 -4.5664,-0.228516 z"
             transform="matrix(0.26458333,0,0,0.26458333,39.863254,96.979629)"
             id="path881"
             inkscape:connector-curvature="0" />
          <path
             style="opacity:1;fill:#ececec;fill-opacity:1;fill-rule:nonzero;stroke:none;stroke-width:5.41839743;stroke-linecap:round;stroke-linejoin:round;stroke-miterlimit:4;stroke-dasharray:none;stroke-opacity:1"
             d="m -427.30859,-29.464844 a 88.11676,88.11676 0 0 0 -1.25391,0.04492 88.11676,88.11676 0 0 1 87.22852,88.072266 88.11676,88.11676 0 0 1 -86.86329,88.070318 88.11676,88.11676 0 0 0 0.88868,0.0449 88.11676,88.11676 0 0 0 88.11718,-88.115238 88.11676,88.11676 0 0 0 -88.11718,-88.117188 z"
             transform="matrix(0.26458333,0,0,0.26458333,39.863254,96.979629)"
             id="path883"
             inkscape:connector-curvature="0" />
        </g>
      </g>
      <path
         sodipodi:open="true"
         d="m -52.112284,125.81488 a 6.6762443,12.384555 0 0 1 -3.338122,10.72534 6.6762443,12.384555 0 0 1 -6.676245,0 6.6762443,12.384555 0 0 1 -3.338122,-10.72534"
         sodipodi:end="3.1415927"
         sodipodi:start="0"
         sodipodi:ry="12.384555"
         sodipodi:rx="6.6762443"
         sodipodi:cy="125.81488"
         sodipodi:cx="-58.788528"
         sodipodi:type="arc"
         id="path952"
         style="opacity:1;vector-effect:none;fill:none;fill-opacity:1;fill-rule:nonzero;stroke:#000000;stroke-width:2.86723471;stroke-linecap:round;stroke-linejoin:round;stroke-miterlimit:4;stroke-dasharray:none;stroke-dashoffset:0;stroke-opacity:1" />
    </g>
  </g>
</svg>
