<?xml version="1.0" encoding="UTF-8" standalone="no"?>
<!-- Created with Inkscape (http://www.inkscape.org/) -->

<svg
   xmlns:dc="http://purl.org/dc/elements/1.1/"
   xmlns:cc="http://creativecommons.org/ns#"
   xmlns:rdf="http://www.w3.org/1999/02/22-rdf-syntax-ns#"
   xmlns:svg="http://www.w3.org/2000/svg"
   xmlns="http://www.w3.org/2000/svg"
   xmlns:sodipodi="http://sodipodi.sourceforge.net/DTD/sodipodi-0.dtd"
   xmlns:inkscape="http://www.inkscape.org/namespaces/inkscape"
   width="161.70195mm"
   height="117.57649mm"
   viewBox="0 0 161.70195 117.57649"
   version="1.1"
   id="svg8"
   inkscape:version="0.92.4 (5da689c313, 2019-01-14)"
   sodipodi:docname="turtle.svg"
   inkscape:export-filename="E:\munka\my_svg_drawings\turtle.png"
   inkscape:export-xdpi="10"
   inkscape:export-ydpi="10">
  <defs
     id="defs2" />
  <sodipodi:namedview
     id="base"
     pagecolor="#ffffff"
     bordercolor="#666666"
     borderopacity="1.0"
     inkscape:pageopacity="0.0"
     inkscape:pageshadow="2"
     inkscape:zoom="0.49497475"
     inkscape:cx="142.13006"
     inkscape:cy="774.24391"
     inkscape:document-units="mm"
     inkscape:current-layer="layer1"
     showgrid="false"
     inkscape:window-width="1920"
     inkscape:window-height="1017"
     inkscape:window-x="-8"
     inkscape:window-y="-8"
     inkscape:window-maximized="1"
     fit-margin-top="0"
     fit-margin-left="0"
     fit-margin-right="0"
     fit-margin-bottom="0" />
  <metadata
     id="metadata5">
    <rdf:RDF>
      <cc:Work
         rdf:about="">
        <dc:format>image/svg+xml</dc:format>
        <dc:type
           rdf:resource="http://purl.org/dc/dcmitype/StillImage" />
        <dc:title></dc:title>
      </cc:Work>
    </rdf:RDF>
  </metadata>
  <g
     inkscape:label="Layer 1"
     inkscape:groupmode="layer"
     id="layer1"
     transform="translate(-39.863254,-96.979629)">
    <g
       id="g1252"
       transform="matrix(0.82306489,0,0,0.82306489,6.9432202,3.5203316)"
       style="stroke-width:1.21497107">
      <ellipse
         transform="rotate(-90)"
         ry="62.229851"
         rx="49.668186"
         cy="147.6664"
         cx="-189.18727"
         id="path815-3"
         style="opacity:1;fill:#008000;fill-opacity:1;fill-rule:nonzero;stroke:none;stroke-width:1.60730553;stroke-linecap:round;stroke-linejoin:round;stroke-miterlimit:4;stroke-dasharray:none;stroke-opacity:1" />
      <ellipse
         transform="matrix(0.60048795,-0.7996338,0.80831958,0.58874397,0,0)"
         ry="21.75662"
         rx="44.444393"
         cy="210.46848"
         cx="-95.590622"
         id="path1104"
         style="opacity:1;fill:#008000;fill-opacity:1;fill-rule:nonzero;stroke:none;stroke-width:1.607391;stroke-linecap:round;stroke-linejoin:round;stroke-miterlimit:4;stroke-dasharray:none;stroke-opacity:1" />
      <circle
         r="41.426773"
         cy="154.97711"
         cx="81.42366"
         id="path992"
         style="opacity:1;fill:#008000;fill-opacity:1;fill-rule:nonzero;stroke:none;stroke-width:0.96438324;stroke-linecap:round;stroke-linejoin:miter;stroke-miterlimit:4;stroke-dasharray:none;stroke-dashoffset:0;stroke-opacity:1" />
      <ellipse
         transform="matrix(-0.3922592,-0.91985473,0.91402703,-0.40565329,0,0)"
         ry="21.75662"
         rx="44.444393"
         cy="92.764931"
         cx="-274.18307"
         id="path1104-7"
         style="opacity:1;fill:#008000;fill-opacity:1;fill-rule:nonzero;stroke:none;stroke-width:1.607391;stroke-linecap:round;stroke-linejoin:round;stroke-miterlimit:4;stroke-dasharray:none;stroke-opacity:1" />
      <ellipse
         transform="matrix(0.37306637,-0.92780466,0.9331549,0.35947452,0,0)"
         ry="21.75662"
         rx="44.444393"
         cy="198.81439"
         cx="-153.66917"
         id="path1104-9"
         style="opacity:1;fill:#008000;fill-opacity:1;fill-rule:nonzero;stroke:none;stroke-width:1.607391;stroke-linecap:round;stroke-linejoin:round;stroke-miterlimit:4;stroke-dasharray:none;stroke-opacity:1" />
      <ellipse
         transform="matrix(-0.39225921,-0.91985472,0.91402702,-0.4056533,0,0)"
         ry="21.75662"
         rx="44.444393"
         cy="72.935509"
         cx="-254.97836"
         id="path1104-7-0"
         style="opacity:1;fill:#008000;fill-opacity:1;fill-rule:nonzero;stroke:none;stroke-width:1.607391;stroke-linecap:round;stroke-linejoin:round;stroke-miterlimit:4;stroke-dasharray:none;stroke-opacity:1" />
      <path
         sodipodi:nodetypes="ccsc"
         inkscape:connector-curvature="0"
         id="path1053"
         d="m 175.7698,164.86609 v 39.02135 c 0,0 100.28497,-26.9748 43.03039,-20.04521 -31.41184,3.80181 -43.03039,-18.97614 -43.03039,-18.97614 z"
         style="fill:#008000;fill-rule:evenodd;stroke:none;stroke-width:0.32146108px;stroke-linecap:butt;stroke-linejoin:miter;stroke-opacity:1" />
      <circle
         transform="scale(-1,1)"
         r="13.630746"
         cy="153.88907"
         cx="-90.83213"
         id="path967-4"
         style="opacity:1;fill:#ffffff;fill-opacity:1;fill-rule:nonzero;stroke:none;stroke-width:1.60730553;stroke-linecap:round;stroke-linejoin:round;stroke-miterlimit:4;stroke-dasharray:none;stroke-opacity:1" />
      <circle
         transform="scale(-1,1)"
         r="6.0851541"
         cy="156.33893"
         cx="-87.750931"
         id="path984-1"
         style="opacity:1;fill:#000000;fill-opacity:1;fill-rule:nonzero;stroke:#000000;stroke-width:1.60730553;stroke-linecap:round;stroke-linejoin:round;stroke-miterlimit:4;stroke-dasharray:none;stroke-opacity:1" />
      <circle
         transform="scale(-1,1)"
         r="13.630746"
         cy="141.70941"
         cx="-60.251038"
         id="path967-4-2"
         style="opacity:1;fill:#ffffff;fill-opacity:1;fill-rule:nonzero;stroke:none;stroke-width:1.60730553;stroke-linecap:round;stroke-linejoin:round;stroke-miterlimit:4;stroke-dasharray:none;stroke-opacity:1" />
      <circle
         transform="scale(-1,1)"
         r="6.0851541"
         cy="144.15927"
         cx="-57.169838"
         id="path984-1-4"
         style="opacity:1;fill:#000000;fill-opacity:1;fill-rule:nonzero;stroke:#000000;stroke-width:1.60730553;stroke-linecap:round;stroke-linejoin:round;stroke-miterlimit:4;stroke-dasharray:none;stroke-opacity:1" />
      <ellipse
         ry="48.608326"
         rx="49.364277"
         cy="175.1743"
         cx="160.72675"
         id="path992-9"
         style="opacity:1;fill:#008000;fill-opacity:1;fill-rule:nonzero;stroke:none;stroke-width:0.96438324;stroke-linecap:round;stroke-linejoin:miter;stroke-miterlimit:4;stroke-dasharray:none;stroke-dashoffset:0;stroke-opacity:1" />
      <ellipse
         style="opacity:1;fill:#008000;fill-opacity:1;fill-rule:nonzero;stroke:none;stroke-width:0.96438324;stroke-linecap:round;stroke-linejoin:miter;stroke-miterlimit:4;stroke-dasharray:none;stroke-dashoffset:0;stroke-opacity:1"
         id="ellipse1172"
         cx="160.72675"
         cy="175.1743"
         rx="49.364277"
         ry="48.608326" />
      <circle
         style="opacity:1;fill:#ccff00;fill-opacity:1;fill-rule:nonzero;stroke:none;stroke-width:1.60730553;stroke-linecap:round;stroke-linejoin:round;stroke-miterlimit:4;stroke-dasharray:none;stroke-opacity:1"
         id="circle1127"
         cx="155.28795"
         cy="170.68588"
         r="18.976137" />
      <path
         transform="matrix(0.26458333,0,0,0.26458333,39.462345,67.971325)"
         id="ellipse1131"
         d="m 374.86914,240.92969 a 71.720833,71.720833 0 0 0 1.83594,4.10156 71.720833,71.720833 0 0 0 3.5664,6.21875 71.720833,71.720833 0 0 0 4.16993,5.83008 71.720833,71.720833 0 0 0 4.73242,5.38672 71.720833,71.720833 0 0 0 5.24609,4.88672 71.720833,71.720833 0 0 0 5.70703,4.33789 71.720833,71.720833 0 0 0 6.11133,3.74804 71.720833,71.720833 0 0 0 6.45508,3.11719 71.720833,71.720833 0 0 0 6.73437,2.45898 71.720833,71.720833 0 0 0 6.94727,1.77344 71.720833,71.720833 0 0 0 7.08789,1.07227 71.720833,71.720833 0 0 0 7.16016,0.35742 71.720833,71.720833 0 0 0 5.07422,-0.17969 71.720833,71.720833 0 0 0 7.11523,-0.86328 71.720833,71.720833 0 0 0 6.99609,-1.57031 71.720833,71.720833 0 0 0 6.80274,-2.25977 71.720833,71.720833 0 0 0 6.54492,-2.92968 71.720833,71.720833 0 0 0 6.21875,-3.56641 71.720833,71.720833 0 0 0 5.83008,-4.16992 71.720833,71.720833 0 0 0 5.38672,-4.73242 71.720833,71.720833 0 0 0 4.88672,-5.2461 71.720833,71.720833 0 0 0 4.33789,-5.70703 71.720833,71.720833 0 0 0 3.74804,-6.11133 71.720833,71.720833 0 0 0 3.11719,-6.45508 71.720833,71.720833 0 0 0 2.45898,-6.73437 71.720833,71.720833 0 0 0 1.22657,-4.80469 186.57364,183.71651 0 0 0 -52.04492,-7.42773 186.57364,183.71651 0 0 0 -83.45313,19.46875 z"
         style="opacity:1;fill:#ccff00;fill-opacity:1;fill-rule:nonzero;stroke:none;stroke-width:3.64491367;stroke-linecap:round;stroke-linejoin:miter;stroke-miterlimit:4;stroke-dasharray:none;stroke-dashoffset:0;stroke-opacity:1"
         inkscape:connector-curvature="0" />
      <path
         id="path1136"
         transform="matrix(0.26458333,0,0,0.26458333,39.462345,67.971325)"
         d="m 575.83008,262.73438 a 71.720833,71.720833 0 0 0 -36.92774,62.62109 71.720833,71.720833 0 0 0 71.72071,71.7207 71.720833,71.720833 0 0 0 33.42773,-8.3164 186.57364,183.71651 0 0 0 -68.2207,-126.02539 z"
         style="opacity:1;fill:#ccff00;fill-opacity:1;fill-rule:nonzero;stroke:none;stroke-width:3.64491367;stroke-linecap:round;stroke-linejoin:miter;stroke-miterlimit:4;stroke-dasharray:none;stroke-dashoffset:0;stroke-opacity:1"
         inkscape:connector-curvature="0" />
      <path
         id="path1198"
         transform="matrix(0.26458333,0,0,0.26458333,39.462345,67.971325)"
         d="m 320.71484,241.55273 a 26.428571,26.428571 0 0 0 -26.42968,26.42774 26.428571,26.428571 0 0 0 7.20312,18.10937 195.09429,194.4647 0 0 0 -4.32226,39.64258 195.09429,194.4647 0 0 0 195.0957,194.46485 195.09429,194.4647 0 0 0 156.54492,-78.77344 26.428571,26.428571 0 0 0 24.05078,-26.30078 A 26.428571,26.428571 0 0 0 646.42773,388.69531 26.428571,26.428571 0 0 0 620,415.12305 a 26.428571,26.428571 0 0 0 1.63281,9.08203 163.71652,161.2094 0 0 1 -129.37109,62.73633 163.71652,161.2094 0 0 1 -163.7168,-161.20899 163.71652,161.2094 0 0 1 3.7832,-34.03125 26.428571,26.428571 0 0 0 14.81446,-23.7207 26.428571,26.428571 0 0 0 -26.42774,-26.42774 z m 9.22461,51.17774 a 26.428571,26.428571 0 0 1 -0.26757,0.0879 26.428571,26.428571 0 0 0 0.26757,-0.0879 z m -2.47265,0.78711 a 26.428571,26.428571 0 0 1 -0.60352,0.13672 26.428571,26.428571 0 0 0 0.60352,-0.13672 z m -2.54297,0.54297 a 26.428571,26.428571 0 0 1 -0.89453,0.10742 26.428571,26.428571 0 0 0 0.89453,-0.10742 z m -2.62891,0.29297 a 26.428571,26.428571 0 0 1 -1.58008,0.0566 26.428571,26.428571 0 0 0 1.58008,-0.0566 z"
         style="opacity:1;fill:#ccff00;fill-opacity:1;fill-rule:nonzero;stroke:none;stroke-width:3.64491367;stroke-linecap:round;stroke-linejoin:miter;stroke-miterlimit:4;stroke-dasharray:none;stroke-dashoffset:0;stroke-opacity:1"
         inkscape:connector-curvature="0" />
    </g>
  </g>
</svg>
