<?xml version="1.0" encoding="UTF-8" standalone="no"?>
<!-- Created with Inkscape (http://www.inkscape.org/) -->

<svg
   xmlns:dc="http://purl.org/dc/elements/1.1/"
   xmlns:cc="http://creativecommons.org/ns#"
   xmlns:rdf="http://www.w3.org/1999/02/22-rdf-syntax-ns#"
   xmlns:svg="http://www.w3.org/2000/svg"
   xmlns="http://www.w3.org/2000/svg"
   xmlns:sodipodi="http://sodipodi.sourceforge.net/DTD/sodipodi-0.dtd"
   xmlns:inkscape="http://www.inkscape.org/namespaces/inkscape"
   width="674.11963"
   height="674.11957"
   viewBox="0 0 178.36082 178.36081"
   version="1.1"
   id="svg8"
   inkscape:version="0.92.4 (5da689c313, 2019-01-14)"
   sodipodi:docname="earth.svg"
   inkscape:export-filename="E:\munka\my_svg_drawings\earth.png"
   inkscape:export-xdpi="9.114109"
   inkscape:export-ydpi="9.114109">
  <defs
     id="defs2" />
  <sodipodi:namedview
     id="base"
     pagecolor="#ffffff"
     bordercolor="#666666"
     borderopacity="1.0"
     inkscape:pageopacity="0"
     inkscape:pageshadow="2"
     inkscape:zoom="0.32"
     inkscape:cx="-482.73588"
     inkscape:cy="584.6019"
     inkscape:document-units="mm"
     inkscape:current-layer="layer1"
     showgrid="false"
     units="px"
     inkscape:window-width="1920"
     inkscape:window-height="1017"
     inkscape:window-x="-8"
     inkscape:window-y="-8"
     inkscape:window-maximized="1"
     fit-margin-top="0"
     fit-margin-left="0"
     fit-margin-right="0"
     fit-margin-bottom="0" />
  <metadata
     id="metadata5">
    <rdf:RDF>
      <cc:Work
         rdf:about="">
        <dc:format>image/svg+xml</dc:format>
        <dc:type
           rdf:resource="http://purl.org/dc/dcmitype/StillImage" />
        <dc:title></dc:title>
      </cc:Work>
    </rdf:RDF>
  </metadata>
  <g
     inkscape:label="Page"
     inkscape:groupmode="layer"
     id="layer1"
     transform="translate(-139.95868,-57.367724)">
    <g
       id="g887"
       transform="matrix(1.0046573,0,0,1.0046573,-0.6518247,-0.2671767)"
       style="stroke-width:0.99536431">
      <circle
         r="88.766983"
         cy="146.1347"
         cx="228.72569"
         id="path957-8-4"
         style="display:inline;opacity:1;vector-effect:none;fill:#2a7fff;fill-opacity:1;fill-rule:nonzero;stroke:none;stroke-width:0.2633568;stroke-linecap:round;stroke-linejoin:round;stroke-miterlimit:4;stroke-dasharray:none;stroke-dashoffset:0;stroke-opacity:1" />
      <path
         inkscape:connector-curvature="0"
         id="path1040"
         d="m 271.24968,68.218344 c -18.77749,10.707768 -35.40118,27.894158 -42.5237,47.874196 -3.84829,10.79524 -6.28247,27.29801 2.81631,34.26637 6.18875,4.73967 16.15679,-0.49202 23.00031,-4.22447 9.23209,-5.03525 9.93923,-29.27199 19.94991,-26.05142 7.96284,2.56177 6.39028,19.69308 4.92895,27.92923 -0.64798,3.65227 -7.47745,6.95785 -5.1638,9.85715 3.43256,4.3014 12.87449,0.33263 15.95946,-4.22449 4.33007,-6.39637 -5.88026,-25.51358 -0.93851,-31.45007 3.30953,-3.97568 12.60034,1.45054 16.4291,4.92898 9.85004,8.94877 1.7516,31.91366 -6.33713,42.48135 -10.05795,13.14043 -62.01397,1.62215 -67.4839,17.23983 -4.5287,12.93025 5.86297,31.67969 16.68716,45.69681 a 88.766983,88.766983 0 0 0 68.91862,-86.40737 88.766983,88.766983 0 0 0 -46.24278,-77.916096 z"
         style="display:inline;fill:#5fd35f;fill-rule:evenodd;stroke:none;stroke-width:0.2633568px;stroke-linecap:butt;stroke-linejoin:miter;stroke-opacity:1" />
      <path
         inkscape:connector-curvature="0"
         id="path1042"
         d="m 228.72598,57.367946 a 88.766983,88.766983 0 0 0 -49.90883,15.464056 c 10.95349,3.27247 23.35339,4.41036 33.01005,4.88749 20.99,1.0371 36.30734,-7.60956 46.21874,-15.259934 a 88.766983,88.766983 0 0 0 -29.31996,-5.091612 z"
         style="display:inline;fill:#f9f9f9;fill-rule:evenodd;stroke:none;stroke-width:0.2633568px;stroke-linecap:butt;stroke-linejoin:miter;stroke-opacity:1" />
      <path
         inkscape:connector-curvature="0"
         id="path1044-1"
         d="m 174.51053,75.912202 a 88.766983,88.766983 0 0 0 -34.55185,70.222238 88.766983,88.766983 0 0 0 44.45625,76.8249 c 1.78527,-11.48123 7.09056,-24.25213 2.27615,-33.41586 -3.58068,-6.8154 -15.82172,-11.15088 -22.74469,-14.51891 -7.38713,-3.59382 -12.17316,-6.1467 -14.76206,-13.94304 -2.50507,-7.54405 -3.64212,-17.0558 2.65535,-21.90659 4.62688,-3.56397 9.49852,-4.256 14.77033,-1.74256 6.00257,2.86183 8.35499,17.44427 14.10655,14.1065 3.27317,-1.8995 -3.58638,-17.03037 -2.63547,-20.69342 9.28696,-35.774188 23.82919,-22.96077 17.28383,-38.056058 -3.23458,-7.45981 -11.70522,-13.6368 -20.85439,-16.8772 z"
         style="display:inline;fill:#5fd35f;fill-opacity:1;fill-rule:evenodd;stroke:none;stroke-width:0.2633568px;stroke-linecap:butt;stroke-linejoin:miter;stroke-opacity:1" />
      <g
         transform="matrix(1.6057512,0,0,1.6057512,-337.25393,-115.96792)"
         id="g1329"
         style="display:inline;stroke-width:0.6198746">
        <circle
           style="opacity:1;vector-effect:none;fill:#000000;fill-opacity:1;fill-rule:nonzero;stroke:none;stroke-width:0.16400847;stroke-linecap:round;stroke-linejoin:round;stroke-miterlimit:4;stroke-dasharray:none;stroke-dashoffset:0;stroke-opacity:1"
           id="path1070-5"
           cx="343.99786"
           cy="151.19188"
           r="6.2789245" />
        <circle
           r="6.2789245"
           cy="151.19188"
           cx="322.50046"
           id="circle1089"
           style="opacity:1;vector-effect:none;fill:#000000;fill-opacity:1;fill-rule:nonzero;stroke:none;stroke-width:0.16400847;stroke-linecap:round;stroke-linejoin:round;stroke-miterlimit:4;stroke-dasharray:none;stroke-dashoffset:0;stroke-opacity:1" />
      </g>
      <ellipse
         ry="8.9179897"
         rx="24.427237"
         style="display:inline;opacity:1;vector-effect:none;fill:#000000;fill-opacity:1;fill-rule:nonzero;stroke:none;stroke-width:0.2633568;stroke-linecap:round;stroke-linejoin:round;stroke-miterlimit:4;stroke-dasharray:none;stroke-dashoffset:0;stroke-opacity:1"
         id="circle1089-4-0-8"
         cx="219.3725"
         cy="158.66103" />
    </g>
  </g>
</svg>
