<?xml version="1.0" encoding="UTF-8" standalone="no"?>
<!-- Created with Inkscape (http://www.inkscape.org/) -->

<svg
   xmlns:dc="http://purl.org/dc/elements/1.1/"
   xmlns:cc="http://creativecommons.org/ns#"
   xmlns:rdf="http://www.w3.org/1999/02/22-rdf-syntax-ns#"
   xmlns:svg="http://www.w3.org/2000/svg"
   xmlns="http://www.w3.org/2000/svg"
   xmlns:sodipodi="http://sodipodi.sourceforge.net/DTD/sodipodi-0.dtd"
   xmlns:inkscape="http://www.inkscape.org/namespaces/inkscape"
   width="165.1644mm"
   height="165.1644mm"
   viewBox="0 0 165.16439 165.1644"
   version="1.1"
   id="svg8"
   inkscape:version="0.92.4 (5da689c313, 2019-01-14)"
   sodipodi:docname="star.svg"
   inkscape:export-filename="E:\munka\my_svg_drawings\star.png"
   inkscape:export-xdpi="9.6548328"
   inkscape:export-ydpi="9.6548328">
  <defs
     id="defs2">
    <filter
       inkscape:collect="always"
       style="color-interpolation-filters:sRGB"
       id="filter5096"
       x="-0.059999999"
       width="1.12"
       y="-0.059999999"
       height="1.12">
      <feGaussianBlur
         inkscape:collect="always"
         stdDeviation="0.36423635"
         id="feGaussianBlur5098" />
    </filter>
    <filter
       inkscape:collect="always"
       style="color-interpolation-filters:sRGB"
       id="filter5096-1"
       x="-0.059999999"
       width="1.12"
       y="-0.059999999"
       height="1.12">
      <feGaussianBlur
         inkscape:collect="always"
         stdDeviation="0.36423635"
         id="feGaussianBlur5098-3" />
    </filter>
  </defs>
  <sodipodi:namedview
     id="base"
     pagecolor="#ffffff"
     bordercolor="#666666"
     borderopacity="1.0"
     inkscape:pageopacity="0.0"
     inkscape:pageshadow="2"
     inkscape:zoom="0.49497475"
     inkscape:cx="45.363464"
     inkscape:cy="332.61203"
     inkscape:document-units="mm"
     inkscape:current-layer="layer1"
     showgrid="false"
     inkscape:window-width="1920"
     inkscape:window-height="1017"
     inkscape:window-x="-8"
     inkscape:window-y="-8"
     inkscape:window-maximized="1"
     fit-margin-top="0"
     fit-margin-left="0"
     fit-margin-right="0"
     fit-margin-bottom="0"
     showguides="false" />
  <metadata
     id="metadata5">
    <rdf:RDF>
      <cc:Work
         rdf:about="">
        <dc:format>image/svg+xml</dc:format>
        <dc:type
           rdf:resource="http://purl.org/dc/dcmitype/StillImage" />
        <dc:title></dc:title>
      </cc:Work>
    </rdf:RDF>
  </metadata>
  <g
     inkscape:label="Layer 1"
     inkscape:groupmode="layer"
     id="layer1"
     transform="translate(-22.401849,-62.259613)">
    <g
       id="g919"
       transform="matrix(0.98095146,0,0,0.98095146,0.42672259,1.1859551)"
       style="stroke-width:1.01941848">
      <path
         id="path853"
         transform="matrix(0.26458333,0,0,0.26458333,24.923659,64.009893)"
         d="M 308.65234,-6.6152344 A 79.54568,318.18272 0 0 0 237.71484,168.375 318.18275,79.545687 45 0 0 79.623047,106.78125 318.18275,79.545687 45 0 0 127.79883,246.23047 318.18272,79.54568 0 0 0 -9.53125,311.56836 318.18272,79.54568 0 0 0 154.48242,381.12695 79.545687,318.18275 45 0 0 79.623047,556.75977 79.545687,318.18275 45 0 0 243.09766,491.20703 79.54568,318.18272 0 0 0 308.65234,629.75 79.54568,318.18272 0 0 0 373.30078,496.51172 318.18275,79.545687 45 0 0 529.59961,556.75977 318.18275,79.545687 45 0 0 455.42969,382.10742 318.18272,79.54568 0 0 0 626.83398,311.56836 318.18272,79.54568 0 0 0 482.25,244.98633 79.545687,318.18275 45 0 0 529.59961,106.78125 79.545687,318.18275 45 0 0 378.92578,162.9375 79.54568,318.18272 0 0 0 308.65234,-6.6152344 Z"
         style="opacity:1;vector-effect:none;fill:#ffff00;fill-opacity:1;fill-rule:nonzero;stroke:none;stroke-width:1.01941824;stroke-linecap:round;stroke-linejoin:round;stroke-miterlimit:4;stroke-dasharray:none;stroke-dashoffset:0;stroke-opacity:1"
         inkscape:connector-curvature="0" />
      <g
         transform="matrix(0.80649289,0,0,0.80649289,30.156127,10.860151)"
         id="g5125"
         style="stroke-width:1.01941848">
        <ellipse
           style="opacity:1;fill:#000000;fill-opacity:1;fill-rule:nonzero;stroke:#000000;stroke-width:3.88193917;stroke-linecap:round;stroke-linejoin:round;stroke-miterlimit:4;stroke-dasharray:none;stroke-opacity:1"
           id="path984-1-9"
           cx="-71.9972"
           cy="146.38422"
           transform="scale(-1,1)"
           rx="7.389998"
           ry="12.514173" />
        <ellipse
           style="opacity:1;fill:#000000;fill-opacity:1;fill-rule:nonzero;stroke:#000000;stroke-width:3.88193917;stroke-linecap:round;stroke-linejoin:round;stroke-miterlimit:4;stroke-dasharray:none;stroke-opacity:1"
           id="path984-1-9-1"
           cx="-117.54331"
           cy="146.38422"
           transform="scale(-1,1)"
           rx="7.389998"
           ry="12.514173" />
      </g>
      <path
         d="m 114.36096,161.04175 a 7.7732949,7.7732949 0 0 1 -3.88665,6.73187 7.7732949,7.7732949 0 0 1 -7.7733,0 7.7732949,7.7732949 0 0 1 -3.886643,-6.73187"
         sodipodi:open="true"
         sodipodi:end="3.1415927"
         sodipodi:start="0"
         sodipodi:ry="7.7732949"
         sodipodi:rx="7.7732949"
         sodipodi:cy="161.04175"
         sodipodi:cx="106.58766"
         sodipodi:type="arc"
         id="path5121"
         style="opacity:1;vector-effect:none;fill:none;fill-opacity:1;fill-rule:nonzero;stroke:#000000;stroke-width:3.26292253;stroke-linecap:round;stroke-linejoin:round;stroke-miterlimit:4;stroke-dasharray:none;stroke-dashoffset:0;stroke-opacity:1" />
      <g
         transform="matrix(0.80649289,0,0,0.80649289,29.926666,11.725388)"
         id="g5129"
         style="stroke-width:1.01941848">
        <circle
           style="opacity:1;fill:#ff5555;fill-opacity:1;fill-rule:nonzero;stroke:none;stroke-width:2.94061947;stroke-linecap:round;stroke-linejoin:round;stroke-miterlimit:4;stroke-dasharray:none;stroke-opacity:1;filter:url(#filter5096)"
           id="path984"
           cx="55.557301"
           cy="174.73244"
           r="7.2847271" />
        <circle
           style="opacity:1;fill:#ff5555;fill-opacity:1;fill-rule:nonzero;stroke:none;stroke-width:2.94061947;stroke-linecap:round;stroke-linejoin:round;stroke-miterlimit:4;stroke-dasharray:none;stroke-opacity:1;filter:url(#filter5096-1)"
           id="path984-8"
           cx="134.55225"
           cy="174.73244"
           r="7.2847271" />
      </g>
    </g>
  </g>
</svg>
