<?xml version="1.0" encoding="UTF-8" standalone="no"?>
<!-- Created with Inkscape (http://www.inkscape.org/) -->

<svg
   xmlns:dc="http://purl.org/dc/elements/1.1/"
   xmlns:cc="http://creativecommons.org/ns#"
   xmlns:rdf="http://www.w3.org/1999/02/22-rdf-syntax-ns#"
   xmlns:svg="http://www.w3.org/2000/svg"
   xmlns="http://www.w3.org/2000/svg"
   xmlns:sodipodi="http://sodipodi.sourceforge.net/DTD/sodipodi-0.dtd"
   xmlns:inkscape="http://www.inkscape.org/namespaces/inkscape"
   width="170.03258mm"
   height="169.22833mm"
   viewBox="0 0 170.03257 169.22833"
   version="1.1"
   id="svg8"
   inkscape:version="0.92.4 (5da689c313, 2019-01-14)"
   sodipodi:docname="sun_03.svg"
   inkscape:export-filename="E:\munka\my_svg_drawings\sun_03.png"
   inkscape:export-xdpi="9.6059561"
   inkscape:export-ydpi="9.6059561">
  <defs
     id="defs2">
    <filter
       inkscape:collect="always"
       style="color-interpolation-filters:sRGB"
       id="filter5096"
       x="-0.059999999"
       width="1.12"
       y="-0.059999999"
       height="1.12">
      <feGaussianBlur
         inkscape:collect="always"
         stdDeviation="0.36423635"
         id="feGaussianBlur5098" />
    </filter>
    <filter
       inkscape:collect="always"
       style="color-interpolation-filters:sRGB"
       id="filter5096-1"
       x="-0.059999999"
       width="1.12"
       y="-0.059999999"
       height="1.12">
      <feGaussianBlur
         inkscape:collect="always"
         stdDeviation="0.36423635"
         id="feGaussianBlur5098-3" />
    </filter>
  </defs>
  <sodipodi:namedview
     id="base"
     pagecolor="#ffffff"
     bordercolor="#666666"
     borderopacity="1.0"
     inkscape:pageopacity="0.0"
     inkscape:pageshadow="2"
     inkscape:zoom="0.49497475"
     inkscape:cx="131.12596"
     inkscape:cy="173.93394"
     inkscape:document-units="mm"
     inkscape:current-layer="layer1"
     showgrid="false"
     inkscape:window-width="1920"
     inkscape:window-height="1017"
     inkscape:window-x="-8"
     inkscape:window-y="-8"
     inkscape:window-maximized="1"
     fit-margin-top="0"
     fit-margin-left="0"
     fit-margin-right="0"
     fit-margin-bottom="0"
     showguides="false" />
  <metadata
     id="metadata5">
    <rdf:RDF>
      <cc:Work
         rdf:about="">
        <dc:format>image/svg+xml</dc:format>
        <dc:type
           rdf:resource="http://purl.org/dc/dcmitype/StillImage" />
        <dc:title></dc:title>
      </cc:Work>
    </rdf:RDF>
  </metadata>
  <g
     inkscape:label="Layer 1"
     inkscape:groupmode="layer"
     id="layer1"
     transform="translate(-21.22336,-60.711502)">
    <g
       id="g1079"
       transform="matrix(0.74912239,0,0,0.74912239,-117.5152,124.06333)"
       style="stroke-width:1.33489537">
      <g
         transform="translate(460.375,-145.89881)"
         id="g901"
         style="stroke-width:1.33489537">
        <path
           style="opacity:1;vector-effect:none;fill:#ff7f2a;fill-opacity:1;fill-rule:nonzero;stroke:none;stroke-width:5.29786587;stroke-linecap:round;stroke-linejoin:round;stroke-miterlimit:4;stroke-dasharray:none;stroke-dashoffset:0;stroke-opacity:1"
           d="m -142.80385,88.643492 a 42.900296,42.900296 0 0 0 -1.05575,9.307453 42.900296,42.900296 0 0 0 42.90022,42.900735 42.900296,42.900296 0 0 0 42.900221,-42.900735 42.900296,42.900296 0 0 0 -1.05575,-9.213403 42.900296,42.900296 0 0 1 -41.844471,33.593288 42.900296,42.900296 0 0 1 -41.84447,-33.687338 z"
           id="path844-5"
           inkscape:connector-curvature="0" />
        <path
           inkscape:connector-curvature="0"
           id="path849-5"
           d="m -133.86585,85.5064 a 42.900296,42.900296 0 0 0 -3.42872,8.717053 42.900296,42.900296 0 0 0 30.3349,52.542317 42.900296,42.900296 0 0 0 52.541961,-30.33554 42.900296,42.900296 0 0 0 1.36483,-9.1727 42.900296,42.900296 0 0 1 -49.113241,21.61848 42.900296,42.900296 0 0 1 -31.69973,-43.36961 z"
           style="opacity:1;vector-effect:none;fill:#ff7f2a;fill-opacity:1;fill-rule:nonzero;stroke:none;stroke-width:5.29786587;stroke-linecap:round;stroke-linejoin:round;stroke-miterlimit:4;stroke-dasharray:none;stroke-dashoffset:0;stroke-opacity:1" />
        <path
           style="opacity:1;vector-effect:none;fill:#ff7f2a;fill-opacity:1;fill-rule:nonzero;stroke:none;stroke-width:5.29786587;stroke-linecap:round;stroke-linejoin:round;stroke-miterlimit:4;stroke-dasharray:none;stroke-dashoffset:0;stroke-opacity:1"
           d="m -120.67586,87.333243 a 42.900296,42.900296 0 0 0 -5.56803,7.532613 42.900296,42.900296 0 0 0 15.70231,58.603214 42.900296,42.900296 0 0 0 58.603051,-15.70302 42.900296,42.900296 0 0 0 3.69239,-8.50691 42.900296,42.900296 0 0 1 -53.035031,8.17042 42.900296,42.900296 0 0 1 -19.39469,-50.096317 z"
           id="path851-5"
           inkscape:connector-curvature="0" />
        <path
           inkscape:connector-curvature="0"
           id="path853-2"
           d="m -107.30846,93.500398 a 42.900296,42.900296 0 0 0 -7.32788,5.83482 42.900296,42.900296 0 0 0 -2.6e-4,60.670422 42.900296,42.900296 0 0 0 60.670441,-2.6e-4 42.900296,42.900296 0 0 0 5.76832,-7.26138 42.900296,42.900296 0 0 1 -53.342671,-5.83457 42.900296,42.900296 0 0 1 -5.76795,-53.409032 z"
           style="opacity:1;vector-effect:none;fill:#ff7f2a;fill-opacity:1;fill-rule:nonzero;stroke:none;stroke-width:5.29786587;stroke-linecap:round;stroke-linejoin:round;stroke-miterlimit:4;stroke-dasharray:none;stroke-dashoffset:0;stroke-opacity:1" />
        <path
           style="opacity:1;vector-effect:none;fill:#ff7f2a;fill-opacity:1;fill-rule:nonzero;stroke:none;stroke-width:5.29786587;stroke-linecap:round;stroke-linejoin:round;stroke-miterlimit:4;stroke-dasharray:none;stroke-dashoffset:0;stroke-opacity:1"
           d="m -99.053689,96.954007 a 42.900296,42.900296 0 0 0 -8.588351,3.739413 42.900296,42.900296 0 0 0 -15.70302,58.60303 42.900296,42.900296 0 0 0 58.603241,15.70231 42.900296,42.900296 0 0 0 7.45115,-5.52101 42.900296,42.900296 0 0 1 -50.014891,-19.44172 42.900296,42.900296 0 0 1 8.251871,-53.082023 z"
           id="path855-0"
           inkscape:connector-curvature="0" />
        <path
           inkscape:connector-curvature="0"
           id="path857-3"
           d="m -84.608599,102.15605 a 42.900296,42.900296 0 0 0 -9.26355,1.38916 42.900296,42.900296 0 0 0 -30.335531,52.54193 42.900296,42.900296 0 0 0 52.542331,30.3349 42.900296,42.900296 0 0 0 8.6262,-3.40439 42.900296,42.900296 0 0 1 -43.278781,-31.72406 42.900296,42.900296 0 0 1 21.709331,-49.13754 z"
           style="opacity:1;vector-effect:none;fill:#ff7f2a;fill-opacity:1;fill-rule:nonzero;stroke:none;stroke-width:5.29786587;stroke-linecap:round;stroke-linejoin:round;stroke-miterlimit:4;stroke-dasharray:none;stroke-dashoffset:0;stroke-opacity:1" />
        <path
           style="opacity:1;vector-effect:none;fill:#ff7f2a;fill-opacity:1;fill-rule:nonzero;stroke:none;stroke-width:5.29786587;stroke-linecap:round;stroke-linejoin:round;stroke-miterlimit:4;stroke-dasharray:none;stroke-dashoffset:0;stroke-opacity:1"
           d="m -75.358579,112.1866 a 42.900296,42.900296 0 0 0 -9.30744,-1.05576 42.900296,42.900296 0 0 0 -42.900731,42.9002 42.900296,42.900296 0 0 0 42.900741,42.90023 42.900296,42.900296 0 0 0 9.21339,-1.05576 42.900296,42.900296 0 0 1 -33.593301,-41.84447 42.900296,42.900296 0 0 1 33.687341,-41.84444 z"
           id="path859-1"
           inkscape:connector-curvature="0" />
      </g>
      <g
         transform="matrix(-1,0,0,1,137.00362,-149.77262)"
         id="g917"
         style="stroke-width:1.33489537">
        <path
           inkscape:connector-curvature="0"
           id="path903"
           d="m -142.80385,88.643492 a 42.900296,42.900296 0 0 0 -1.05575,9.307453 42.900296,42.900296 0 0 0 42.90022,42.900735 42.900296,42.900296 0 0 0 42.900221,-42.900735 42.900296,42.900296 0 0 0 -1.05575,-9.213403 42.900296,42.900296 0 0 1 -41.844471,33.593288 42.900296,42.900296 0 0 1 -41.84447,-33.687338 z"
           style="opacity:1;vector-effect:none;fill:#ff7f2a;fill-opacity:1;fill-rule:nonzero;stroke:none;stroke-width:5.29786587;stroke-linecap:round;stroke-linejoin:round;stroke-miterlimit:4;stroke-dasharray:none;stroke-dashoffset:0;stroke-opacity:1" />
        <path
           style="opacity:1;vector-effect:none;fill:#ff7f2a;fill-opacity:1;fill-rule:nonzero;stroke:none;stroke-width:5.29786587;stroke-linecap:round;stroke-linejoin:round;stroke-miterlimit:4;stroke-dasharray:none;stroke-dashoffset:0;stroke-opacity:1"
           d="m -133.86585,85.5064 a 42.900296,42.900296 0 0 0 -3.42872,8.717053 42.900296,42.900296 0 0 0 30.3349,52.542317 42.900296,42.900296 0 0 0 52.541961,-30.33554 42.900296,42.900296 0 0 0 1.36483,-9.1727 42.900296,42.900296 0 0 1 -49.113241,21.61848 42.900296,42.900296 0 0 1 -31.69973,-43.36961 z"
           id="path905"
           inkscape:connector-curvature="0" />
        <path
           inkscape:connector-curvature="0"
           id="path907"
           d="m -120.67586,87.333243 a 42.900296,42.900296 0 0 0 -5.56803,7.532613 42.900296,42.900296 0 0 0 15.70231,58.603214 42.900296,42.900296 0 0 0 58.603051,-15.70302 42.900296,42.900296 0 0 0 3.69239,-8.50691 42.900296,42.900296 0 0 1 -53.035031,8.17042 42.900296,42.900296 0 0 1 -19.39469,-50.096317 z"
           style="opacity:1;vector-effect:none;fill:#ff7f2a;fill-opacity:1;fill-rule:nonzero;stroke:none;stroke-width:5.29786587;stroke-linecap:round;stroke-linejoin:round;stroke-miterlimit:4;stroke-dasharray:none;stroke-dashoffset:0;stroke-opacity:1" />
        <path
           style="opacity:1;vector-effect:none;fill:#ff7f2a;fill-opacity:1;fill-rule:nonzero;stroke:none;stroke-width:5.29786587;stroke-linecap:round;stroke-linejoin:round;stroke-miterlimit:4;stroke-dasharray:none;stroke-dashoffset:0;stroke-opacity:1"
           d="m -107.30846,93.500398 a 42.900296,42.900296 0 0 0 -7.32788,5.83482 42.900296,42.900296 0 0 0 -2.6e-4,60.670422 42.900296,42.900296 0 0 0 60.670441,-2.6e-4 42.900296,42.900296 0 0 0 5.76832,-7.26138 42.900296,42.900296 0 0 1 -53.342671,-5.83457 42.900296,42.900296 0 0 1 -5.76795,-53.409032 z"
           id="path909"
           inkscape:connector-curvature="0" />
        <path
           inkscape:connector-curvature="0"
           id="path911"
           d="m -99.053689,96.954007 a 42.900296,42.900296 0 0 0 -8.588351,3.739413 42.900296,42.900296 0 0 0 -15.70302,58.60303 42.900296,42.900296 0 0 0 58.603241,15.70231 42.900296,42.900296 0 0 0 7.45115,-5.52101 42.900296,42.900296 0 0 1 -50.014891,-19.44172 42.900296,42.900296 0 0 1 8.251871,-53.082023 z"
           style="opacity:1;vector-effect:none;fill:#ff7f2a;fill-opacity:1;fill-rule:nonzero;stroke:none;stroke-width:5.29786587;stroke-linecap:round;stroke-linejoin:round;stroke-miterlimit:4;stroke-dasharray:none;stroke-dashoffset:0;stroke-opacity:1" />
        <path
           style="opacity:1;vector-effect:none;fill:#ff7f2a;fill-opacity:1;fill-rule:nonzero;stroke:none;stroke-width:5.29786587;stroke-linecap:round;stroke-linejoin:round;stroke-miterlimit:4;stroke-dasharray:none;stroke-dashoffset:0;stroke-opacity:1"
           d="m -84.608599,102.15605 a 42.900296,42.900296 0 0 0 -9.26355,1.38916 42.900296,42.900296 0 0 0 -30.335531,52.54193 42.900296,42.900296 0 0 0 52.542331,30.3349 42.900296,42.900296 0 0 0 8.6262,-3.40439 42.900296,42.900296 0 0 1 -43.278781,-31.72406 42.900296,42.900296 0 0 1 21.709331,-49.13754 z"
           id="path913"
           inkscape:connector-curvature="0" />
        <path
           inkscape:connector-curvature="0"
           id="path915"
           d="m -75.358579,112.1866 a 42.900296,42.900296 0 0 0 -9.30744,-1.05576 42.900296,42.900296 0 0 0 -42.900731,42.9002 42.900296,42.900296 0 0 0 42.900741,42.90023 42.900296,42.900296 0 0 0 9.21339,-1.05576 42.900296,42.900296 0 0 1 -33.593301,-41.84447 42.900296,42.900296 0 0 1 33.687341,-41.84444 z"
           style="opacity:1;vector-effect:none;fill:#ff7f2a;fill-opacity:1;fill-rule:nonzero;stroke:none;stroke-width:5.29786587;stroke-linecap:round;stroke-linejoin:round;stroke-miterlimit:4;stroke-dasharray:none;stroke-dashoffset:0;stroke-opacity:1" />
      </g>
      <g
         id="g933"
         transform="rotate(-180,71.376048,101.36139)"
         style="stroke-width:1.33489537">
        <path
           style="opacity:1;vector-effect:none;fill:#ff7f2a;fill-opacity:1;fill-rule:nonzero;stroke:none;stroke-width:5.29786587;stroke-linecap:round;stroke-linejoin:round;stroke-miterlimit:4;stroke-dasharray:none;stroke-dashoffset:0;stroke-opacity:1"
           d="m -142.80385,88.643492 a 42.900296,42.900296 0 0 0 -1.05575,9.307453 42.900296,42.900296 0 0 0 42.90022,42.900735 42.900296,42.900296 0 0 0 42.900221,-42.900735 42.900296,42.900296 0 0 0 -1.05575,-9.213403 42.900296,42.900296 0 0 1 -41.844471,33.593288 42.900296,42.900296 0 0 1 -41.84447,-33.687338 z"
           id="path919"
           inkscape:connector-curvature="0" />
        <path
           inkscape:connector-curvature="0"
           id="path921"
           d="m -133.86585,85.5064 a 42.900296,42.900296 0 0 0 -3.42872,8.717053 42.900296,42.900296 0 0 0 30.3349,52.542317 42.900296,42.900296 0 0 0 52.541961,-30.33554 42.900296,42.900296 0 0 0 1.36483,-9.1727 42.900296,42.900296 0 0 1 -49.113241,21.61848 42.900296,42.900296 0 0 1 -31.69973,-43.36961 z"
           style="opacity:1;vector-effect:none;fill:#ff7f2a;fill-opacity:1;fill-rule:nonzero;stroke:none;stroke-width:5.29786587;stroke-linecap:round;stroke-linejoin:round;stroke-miterlimit:4;stroke-dasharray:none;stroke-dashoffset:0;stroke-opacity:1" />
        <path
           style="opacity:1;vector-effect:none;fill:#ff7f2a;fill-opacity:1;fill-rule:nonzero;stroke:none;stroke-width:5.29786587;stroke-linecap:round;stroke-linejoin:round;stroke-miterlimit:4;stroke-dasharray:none;stroke-dashoffset:0;stroke-opacity:1"
           d="m -120.67586,87.333243 a 42.900296,42.900296 0 0 0 -5.56803,7.532613 42.900296,42.900296 0 0 0 15.70231,58.603214 42.900296,42.900296 0 0 0 58.603051,-15.70302 42.900296,42.900296 0 0 0 3.69239,-8.50691 42.900296,42.900296 0 0 1 -53.035031,8.17042 42.900296,42.900296 0 0 1 -19.39469,-50.096317 z"
           id="path923"
           inkscape:connector-curvature="0" />
        <path
           inkscape:connector-curvature="0"
           id="path925"
           d="m -107.30846,93.500398 a 42.900296,42.900296 0 0 0 -7.32788,5.83482 42.900296,42.900296 0 0 0 -2.6e-4,60.670422 42.900296,42.900296 0 0 0 60.670441,-2.6e-4 42.900296,42.900296 0 0 0 5.76832,-7.26138 42.900296,42.900296 0 0 1 -53.342671,-5.83457 42.900296,42.900296 0 0 1 -5.76795,-53.409032 z"
           style="opacity:1;vector-effect:none;fill:#ff7f2a;fill-opacity:1;fill-rule:nonzero;stroke:none;stroke-width:5.29786587;stroke-linecap:round;stroke-linejoin:round;stroke-miterlimit:4;stroke-dasharray:none;stroke-dashoffset:0;stroke-opacity:1" />
        <path
           style="opacity:1;vector-effect:none;fill:#ff7f2a;fill-opacity:1;fill-rule:nonzero;stroke:none;stroke-width:5.29786587;stroke-linecap:round;stroke-linejoin:round;stroke-miterlimit:4;stroke-dasharray:none;stroke-dashoffset:0;stroke-opacity:1"
           d="m -99.053689,96.954007 a 42.900296,42.900296 0 0 0 -8.588351,3.739413 42.900296,42.900296 0 0 0 -15.70302,58.60303 42.900296,42.900296 0 0 0 58.603241,15.70231 42.900296,42.900296 0 0 0 7.45115,-5.52101 42.900296,42.900296 0 0 1 -50.014891,-19.44172 42.900296,42.900296 0 0 1 8.251871,-53.082023 z"
           id="path927"
           inkscape:connector-curvature="0" />
        <path
           inkscape:connector-curvature="0"
           id="path929"
           d="m -84.608599,102.15605 a 42.900296,42.900296 0 0 0 -9.26355,1.38916 42.900296,42.900296 0 0 0 -30.335531,52.54193 42.900296,42.900296 0 0 0 52.542331,30.3349 42.900296,42.900296 0 0 0 8.6262,-3.40439 42.900296,42.900296 0 0 1 -43.278781,-31.72406 42.900296,42.900296 0 0 1 21.709331,-49.13754 z"
           style="opacity:1;vector-effect:none;fill:#ff7f2a;fill-opacity:1;fill-rule:nonzero;stroke:none;stroke-width:5.29786587;stroke-linecap:round;stroke-linejoin:round;stroke-miterlimit:4;stroke-dasharray:none;stroke-dashoffset:0;stroke-opacity:1" />
        <path
           style="opacity:1;vector-effect:none;fill:#ff7f2a;fill-opacity:1;fill-rule:nonzero;stroke:none;stroke-width:5.29786587;stroke-linecap:round;stroke-linejoin:round;stroke-miterlimit:4;stroke-dasharray:none;stroke-dashoffset:0;stroke-opacity:1"
           d="m -75.358579,112.1866 a 42.900296,42.900296 0 0 0 -9.30744,-1.05576 42.900296,42.900296 0 0 0 -42.900731,42.9002 42.900296,42.900296 0 0 0 42.900741,42.90023 42.900296,42.900296 0 0 0 9.21339,-1.05576 42.900296,42.900296 0 0 1 -33.593301,-41.84447 42.900296,42.900296 0 0 1 33.687341,-41.84444 z"
           id="path931"
           inkscape:connector-curvature="0" />
      </g>
      <g
         transform="matrix(1,0,0,-1,445.36917,204.00753)"
         id="g949"
         style="stroke-width:1.33489537">
        <path
           inkscape:connector-curvature="0"
           id="path935"
           d="m -142.80385,88.643492 a 42.900296,42.900296 0 0 0 -1.05575,9.307453 42.900296,42.900296 0 0 0 42.90022,42.900735 42.900296,42.900296 0 0 0 42.900221,-42.900735 42.900296,42.900296 0 0 0 -1.05575,-9.213403 42.900296,42.900296 0 0 1 -41.844471,33.593288 42.900296,42.900296 0 0 1 -41.84447,-33.687338 z"
           style="opacity:1;vector-effect:none;fill:#ff7f2a;fill-opacity:1;fill-rule:nonzero;stroke:none;stroke-width:5.29786587;stroke-linecap:round;stroke-linejoin:round;stroke-miterlimit:4;stroke-dasharray:none;stroke-dashoffset:0;stroke-opacity:1" />
        <path
           style="opacity:1;vector-effect:none;fill:#ff7f2a;fill-opacity:1;fill-rule:nonzero;stroke:none;stroke-width:5.29786587;stroke-linecap:round;stroke-linejoin:round;stroke-miterlimit:4;stroke-dasharray:none;stroke-dashoffset:0;stroke-opacity:1"
           d="m -133.86585,85.5064 a 42.900296,42.900296 0 0 0 -3.42872,8.717053 42.900296,42.900296 0 0 0 30.3349,52.542317 42.900296,42.900296 0 0 0 52.541961,-30.33554 42.900296,42.900296 0 0 0 1.36483,-9.1727 42.900296,42.900296 0 0 1 -49.113241,21.61848 42.900296,42.900296 0 0 1 -31.69973,-43.36961 z"
           id="path937"
           inkscape:connector-curvature="0" />
        <path
           inkscape:connector-curvature="0"
           id="path939"
           d="m -120.67586,87.333243 a 42.900296,42.900296 0 0 0 -5.56803,7.532613 42.900296,42.900296 0 0 0 15.70231,58.603214 42.900296,42.900296 0 0 0 58.603051,-15.70302 42.900296,42.900296 0 0 0 3.69239,-8.50691 42.900296,42.900296 0 0 1 -53.035031,8.17042 42.900296,42.900296 0 0 1 -19.39469,-50.096317 z"
           style="opacity:1;vector-effect:none;fill:#ff7f2a;fill-opacity:1;fill-rule:nonzero;stroke:none;stroke-width:5.29786587;stroke-linecap:round;stroke-linejoin:round;stroke-miterlimit:4;stroke-dasharray:none;stroke-dashoffset:0;stroke-opacity:1" />
        <path
           style="opacity:1;vector-effect:none;fill:#ff7f2a;fill-opacity:1;fill-rule:nonzero;stroke:none;stroke-width:5.29786587;stroke-linecap:round;stroke-linejoin:round;stroke-miterlimit:4;stroke-dasharray:none;stroke-dashoffset:0;stroke-opacity:1"
           d="m -107.30846,93.500398 a 42.900296,42.900296 0 0 0 -7.32788,5.83482 42.900296,42.900296 0 0 0 -2.6e-4,60.670422 42.900296,42.900296 0 0 0 60.670441,-2.6e-4 42.900296,42.900296 0 0 0 5.76832,-7.26138 42.900296,42.900296 0 0 1 -53.342671,-5.83457 42.900296,42.900296 0 0 1 -5.76795,-53.409032 z"
           id="path941"
           inkscape:connector-curvature="0" />
        <path
           inkscape:connector-curvature="0"
           id="path943"
           d="m -99.053689,96.954007 a 42.900296,42.900296 0 0 0 -8.588351,3.739413 42.900296,42.900296 0 0 0 -15.70302,58.60303 42.900296,42.900296 0 0 0 58.603241,15.70231 42.900296,42.900296 0 0 0 7.45115,-5.52101 42.900296,42.900296 0 0 1 -50.014891,-19.44172 42.900296,42.900296 0 0 1 8.251871,-53.082023 z"
           style="opacity:1;vector-effect:none;fill:#ff7f2a;fill-opacity:1;fill-rule:nonzero;stroke:none;stroke-width:5.29786587;stroke-linecap:round;stroke-linejoin:round;stroke-miterlimit:4;stroke-dasharray:none;stroke-dashoffset:0;stroke-opacity:1" />
        <path
           style="opacity:1;vector-effect:none;fill:#ff7f2a;fill-opacity:1;fill-rule:nonzero;stroke:none;stroke-width:5.29786587;stroke-linecap:round;stroke-linejoin:round;stroke-miterlimit:4;stroke-dasharray:none;stroke-dashoffset:0;stroke-opacity:1"
           d="m -84.608599,102.15605 a 42.900296,42.900296 0 0 0 -9.26355,1.38916 42.900296,42.900296 0 0 0 -30.335531,52.54193 42.900296,42.900296 0 0 0 52.542331,30.3349 42.900296,42.900296 0 0 0 8.6262,-3.40439 42.900296,42.900296 0 0 1 -43.278781,-31.72406 42.900296,42.900296 0 0 1 21.709331,-49.13754 z"
           id="path945"
           inkscape:connector-curvature="0" />
        <path
           inkscape:connector-curvature="0"
           id="path947"
           d="m -75.358579,112.1866 a 42.900296,42.900296 0 0 0 -9.30744,-1.05576 42.900296,42.900296 0 0 0 -42.900731,42.9002 42.900296,42.900296 0 0 0 42.900741,42.90023 42.900296,42.900296 0 0 0 9.21339,-1.05576 42.900296,42.900296 0 0 1 -33.593301,-41.84447 42.900296,42.900296 0 0 1 33.687341,-41.84444 z"
           style="opacity:1;vector-effect:none;fill:#ff7f2a;fill-opacity:1;fill-rule:nonzero;stroke:none;stroke-width:5.29786587;stroke-linecap:round;stroke-linejoin:round;stroke-miterlimit:4;stroke-dasharray:none;stroke-dashoffset:0;stroke-opacity:1" />
      </g>
      <g
         id="g965"
         transform="matrix(0,-1,-1,0,481.97042,-132.7659)"
         style="stroke-width:1.33489537">
        <path
           style="opacity:1;vector-effect:none;fill:#ff7f2a;fill-opacity:1;fill-rule:nonzero;stroke:none;stroke-width:5.29786587;stroke-linecap:round;stroke-linejoin:round;stroke-miterlimit:4;stroke-dasharray:none;stroke-dashoffset:0;stroke-opacity:1"
           d="m -142.80385,88.643492 a 42.900296,42.900296 0 0 0 -1.05575,9.307453 42.900296,42.900296 0 0 0 42.90022,42.900735 42.900296,42.900296 0 0 0 42.900221,-42.900735 42.900296,42.900296 0 0 0 -1.05575,-9.213403 42.900296,42.900296 0 0 1 -41.844471,33.593288 42.900296,42.900296 0 0 1 -41.84447,-33.687338 z"
           id="path951"
           inkscape:connector-curvature="0" />
        <path
           inkscape:connector-curvature="0"
           id="path953"
           d="m -133.86585,85.5064 a 42.900296,42.900296 0 0 0 -3.42872,8.717053 42.900296,42.900296 0 0 0 30.3349,52.542317 42.900296,42.900296 0 0 0 52.541961,-30.33554 42.900296,42.900296 0 0 0 1.36483,-9.1727 42.900296,42.900296 0 0 1 -49.113241,21.61848 42.900296,42.900296 0 0 1 -31.69973,-43.36961 z"
           style="opacity:1;vector-effect:none;fill:#ff7f2a;fill-opacity:1;fill-rule:nonzero;stroke:none;stroke-width:5.29786587;stroke-linecap:round;stroke-linejoin:round;stroke-miterlimit:4;stroke-dasharray:none;stroke-dashoffset:0;stroke-opacity:1" />
        <path
           style="opacity:1;vector-effect:none;fill:#ff7f2a;fill-opacity:1;fill-rule:nonzero;stroke:none;stroke-width:5.29786587;stroke-linecap:round;stroke-linejoin:round;stroke-miterlimit:4;stroke-dasharray:none;stroke-dashoffset:0;stroke-opacity:1"
           d="m -120.67586,87.333243 a 42.900296,42.900296 0 0 0 -5.56803,7.532613 42.900296,42.900296 0 0 0 15.70231,58.603214 42.900296,42.900296 0 0 0 58.603051,-15.70302 42.900296,42.900296 0 0 0 3.69239,-8.50691 42.900296,42.900296 0 0 1 -53.035031,8.17042 42.900296,42.900296 0 0 1 -19.39469,-50.096317 z"
           id="path955"
           inkscape:connector-curvature="0" />
        <path
           inkscape:connector-curvature="0"
           id="path957"
           d="m -107.30846,93.500398 a 42.900296,42.900296 0 0 0 -7.32788,5.83482 42.900296,42.900296 0 0 0 -2.6e-4,60.670422 42.900296,42.900296 0 0 0 60.670441,-2.6e-4 42.900296,42.900296 0 0 0 5.76832,-7.26138 42.900296,42.900296 0 0 1 -53.342671,-5.83457 42.900296,42.900296 0 0 1 -5.76795,-53.409032 z"
           style="opacity:1;vector-effect:none;fill:#ff7f2a;fill-opacity:1;fill-rule:nonzero;stroke:none;stroke-width:5.29786587;stroke-linecap:round;stroke-linejoin:round;stroke-miterlimit:4;stroke-dasharray:none;stroke-dashoffset:0;stroke-opacity:1" />
        <path
           style="opacity:1;vector-effect:none;fill:#ff7f2a;fill-opacity:1;fill-rule:nonzero;stroke:none;stroke-width:5.29786587;stroke-linecap:round;stroke-linejoin:round;stroke-miterlimit:4;stroke-dasharray:none;stroke-dashoffset:0;stroke-opacity:1"
           d="m -99.053689,96.954007 a 42.900296,42.900296 0 0 0 -8.588351,3.739413 42.900296,42.900296 0 0 0 -15.70302,58.60303 42.900296,42.900296 0 0 0 58.603241,15.70231 42.900296,42.900296 0 0 0 7.45115,-5.52101 42.900296,42.900296 0 0 1 -50.014891,-19.44172 42.900296,42.900296 0 0 1 8.251871,-53.082023 z"
           id="path959"
           inkscape:connector-curvature="0" />
        <path
           inkscape:connector-curvature="0"
           id="path961"
           d="m -84.608599,102.15605 a 42.900296,42.900296 0 0 0 -9.26355,1.38916 42.900296,42.900296 0 0 0 -30.335531,52.54193 42.900296,42.900296 0 0 0 52.542331,30.3349 42.900296,42.900296 0 0 0 8.6262,-3.40439 42.900296,42.900296 0 0 1 -43.278781,-31.72406 42.900296,42.900296 0 0 1 21.709331,-49.13754 z"
           style="opacity:1;vector-effect:none;fill:#ff7f2a;fill-opacity:1;fill-rule:nonzero;stroke:none;stroke-width:5.29786587;stroke-linecap:round;stroke-linejoin:round;stroke-miterlimit:4;stroke-dasharray:none;stroke-dashoffset:0;stroke-opacity:1" />
        <path
           style="opacity:1;vector-effect:none;fill:#ff7f2a;fill-opacity:1;fill-rule:nonzero;stroke:none;stroke-width:5.29786587;stroke-linecap:round;stroke-linejoin:round;stroke-miterlimit:4;stroke-dasharray:none;stroke-dashoffset:0;stroke-opacity:1"
           d="m -75.358579,112.1866 a 42.900296,42.900296 0 0 0 -9.30744,-1.05576 42.900296,42.900296 0 0 0 -42.900731,42.9002 42.900296,42.900296 0 0 0 42.900741,42.90023 42.900296,42.900296 0 0 0 9.21339,-1.05576 42.900296,42.900296 0 0 1 -33.593301,-41.84447 42.900296,42.900296 0 0 1 33.687341,-41.84444 z"
           id="path963"
           inkscape:connector-curvature="0" />
      </g>
      <g
         transform="rotate(-90,-6.3845058,-125.84066)"
         id="g981"
         style="stroke-width:1.33489537">
        <path
           inkscape:connector-curvature="0"
           id="path967"
           d="m -142.80385,88.643492 a 42.900296,42.900296 0 0 0 -1.05575,9.307453 42.900296,42.900296 0 0 0 42.90022,42.900735 42.900296,42.900296 0 0 0 42.900221,-42.900735 42.900296,42.900296 0 0 0 -1.05575,-9.213403 42.900296,42.900296 0 0 1 -41.844471,33.593288 42.900296,42.900296 0 0 1 -41.84447,-33.687338 z"
           style="opacity:1;vector-effect:none;fill:#ff7f2a;fill-opacity:1;fill-rule:nonzero;stroke:none;stroke-width:5.29786587;stroke-linecap:round;stroke-linejoin:round;stroke-miterlimit:4;stroke-dasharray:none;stroke-dashoffset:0;stroke-opacity:1" />
        <path
           style="opacity:1;vector-effect:none;fill:#ff7f2a;fill-opacity:1;fill-rule:nonzero;stroke:none;stroke-width:5.29786587;stroke-linecap:round;stroke-linejoin:round;stroke-miterlimit:4;stroke-dasharray:none;stroke-dashoffset:0;stroke-opacity:1"
           d="m -133.86585,85.5064 a 42.900296,42.900296 0 0 0 -3.42872,8.717053 42.900296,42.900296 0 0 0 30.3349,52.542317 42.900296,42.900296 0 0 0 52.541961,-30.33554 42.900296,42.900296 0 0 0 1.36483,-9.1727 42.900296,42.900296 0 0 1 -49.113241,21.61848 42.900296,42.900296 0 0 1 -31.69973,-43.36961 z"
           id="path969"
           inkscape:connector-curvature="0" />
        <path
           inkscape:connector-curvature="0"
           id="path971"
           d="m -120.67586,87.333243 a 42.900296,42.900296 0 0 0 -5.56803,7.532613 42.900296,42.900296 0 0 0 15.70231,58.603214 42.900296,42.900296 0 0 0 58.603051,-15.70302 42.900296,42.900296 0 0 0 3.69239,-8.50691 42.900296,42.900296 0 0 1 -53.035031,8.17042 42.900296,42.900296 0 0 1 -19.39469,-50.096317 z"
           style="opacity:1;vector-effect:none;fill:#ff7f2a;fill-opacity:1;fill-rule:nonzero;stroke:none;stroke-width:5.29786587;stroke-linecap:round;stroke-linejoin:round;stroke-miterlimit:4;stroke-dasharray:none;stroke-dashoffset:0;stroke-opacity:1" />
        <path
           style="opacity:1;vector-effect:none;fill:#ff7f2a;fill-opacity:1;fill-rule:nonzero;stroke:none;stroke-width:5.29786587;stroke-linecap:round;stroke-linejoin:round;stroke-miterlimit:4;stroke-dasharray:none;stroke-dashoffset:0;stroke-opacity:1"
           d="m -107.30846,93.500398 a 42.900296,42.900296 0 0 0 -7.32788,5.83482 42.900296,42.900296 0 0 0 -2.6e-4,60.670422 42.900296,42.900296 0 0 0 60.670441,-2.6e-4 42.900296,42.900296 0 0 0 5.76832,-7.26138 42.900296,42.900296 0 0 1 -53.342671,-5.83457 42.900296,42.900296 0 0 1 -5.76795,-53.409032 z"
           id="path973"
           inkscape:connector-curvature="0" />
        <path
           inkscape:connector-curvature="0"
           id="path975"
           d="m -99.053689,96.954007 a 42.900296,42.900296 0 0 0 -8.588351,3.739413 42.900296,42.900296 0 0 0 -15.70302,58.60303 42.900296,42.900296 0 0 0 58.603241,15.70231 42.900296,42.900296 0 0 0 7.45115,-5.52101 42.900296,42.900296 0 0 1 -50.014891,-19.44172 42.900296,42.900296 0 0 1 8.251871,-53.082023 z"
           style="opacity:1;vector-effect:none;fill:#ff7f2a;fill-opacity:1;fill-rule:nonzero;stroke:none;stroke-width:5.29786587;stroke-linecap:round;stroke-linejoin:round;stroke-miterlimit:4;stroke-dasharray:none;stroke-dashoffset:0;stroke-opacity:1" />
        <path
           style="opacity:1;vector-effect:none;fill:#ff7f2a;fill-opacity:1;fill-rule:nonzero;stroke:none;stroke-width:5.29786587;stroke-linecap:round;stroke-linejoin:round;stroke-miterlimit:4;stroke-dasharray:none;stroke-dashoffset:0;stroke-opacity:1"
           d="m -84.608599,102.15605 a 42.900296,42.900296 0 0 0 -9.26355,1.38916 42.900296,42.900296 0 0 0 -30.335531,52.54193 42.900296,42.900296 0 0 0 52.542331,30.3349 42.900296,42.900296 0 0 0 8.6262,-3.40439 42.900296,42.900296 0 0 1 -43.278781,-31.72406 42.900296,42.900296 0 0 1 21.709331,-49.13754 z"
           id="path977"
           inkscape:connector-curvature="0" />
        <path
           inkscape:connector-curvature="0"
           id="path979"
           d="m -75.358579,112.1866 a 42.900296,42.900296 0 0 0 -9.30744,-1.05576 42.900296,42.900296 0 0 0 -42.900731,42.9002 42.900296,42.900296 0 0 0 42.900741,42.90023 42.900296,42.900296 0 0 0 9.21339,-1.05576 42.900296,42.900296 0 0 1 -33.593301,-41.84447 42.900296,42.900296 0 0 1 33.687341,-41.84444 z"
           style="opacity:1;vector-effect:none;fill:#ff7f2a;fill-opacity:1;fill-rule:nonzero;stroke:none;stroke-width:5.29786587;stroke-linecap:round;stroke-linejoin:round;stroke-miterlimit:4;stroke-dasharray:none;stroke-dashoffset:0;stroke-opacity:1" />
      </g>
      <g
         transform="rotate(90,145.94978,335.48167)"
         id="g997"
         style="stroke-width:1.33489537">
        <path
           inkscape:connector-curvature="0"
           id="path983"
           d="m -142.80385,88.643492 a 42.900296,42.900296 0 0 0 -1.05575,9.307453 42.900296,42.900296 0 0 0 42.90022,42.900735 42.900296,42.900296 0 0 0 42.900221,-42.900735 42.900296,42.900296 0 0 0 -1.05575,-9.213403 42.900296,42.900296 0 0 1 -41.844471,33.593288 42.900296,42.900296 0 0 1 -41.84447,-33.687338 z"
           style="opacity:1;vector-effect:none;fill:#ff7f2a;fill-opacity:1;fill-rule:nonzero;stroke:none;stroke-width:5.29786587;stroke-linecap:round;stroke-linejoin:round;stroke-miterlimit:4;stroke-dasharray:none;stroke-dashoffset:0;stroke-opacity:1" />
        <path
           style="opacity:1;vector-effect:none;fill:#ff7f2a;fill-opacity:1;fill-rule:nonzero;stroke:none;stroke-width:5.29786587;stroke-linecap:round;stroke-linejoin:round;stroke-miterlimit:4;stroke-dasharray:none;stroke-dashoffset:0;stroke-opacity:1"
           d="m -133.86585,85.5064 a 42.900296,42.900296 0 0 0 -3.42872,8.717053 42.900296,42.900296 0 0 0 30.3349,52.542317 42.900296,42.900296 0 0 0 52.541961,-30.33554 42.900296,42.900296 0 0 0 1.36483,-9.1727 42.900296,42.900296 0 0 1 -49.113241,21.61848 42.900296,42.900296 0 0 1 -31.69973,-43.36961 z"
           id="path985"
           inkscape:connector-curvature="0" />
        <path
           inkscape:connector-curvature="0"
           id="path987"
           d="m -120.67586,87.333243 a 42.900296,42.900296 0 0 0 -5.56803,7.532613 42.900296,42.900296 0 0 0 15.70231,58.603214 42.900296,42.900296 0 0 0 58.603051,-15.70302 42.900296,42.900296 0 0 0 3.69239,-8.50691 42.900296,42.900296 0 0 1 -53.035031,8.17042 42.900296,42.900296 0 0 1 -19.39469,-50.096317 z"
           style="opacity:1;vector-effect:none;fill:#ff7f2a;fill-opacity:1;fill-rule:nonzero;stroke:none;stroke-width:5.29786587;stroke-linecap:round;stroke-linejoin:round;stroke-miterlimit:4;stroke-dasharray:none;stroke-dashoffset:0;stroke-opacity:1" />
        <path
           style="opacity:1;vector-effect:none;fill:#ff7f2a;fill-opacity:1;fill-rule:nonzero;stroke:none;stroke-width:5.29786587;stroke-linecap:round;stroke-linejoin:round;stroke-miterlimit:4;stroke-dasharray:none;stroke-dashoffset:0;stroke-opacity:1"
           d="m -107.30846,93.500398 a 42.900296,42.900296 0 0 0 -7.32788,5.83482 42.900296,42.900296 0 0 0 -2.6e-4,60.670422 42.900296,42.900296 0 0 0 60.670441,-2.6e-4 42.900296,42.900296 0 0 0 5.76832,-7.26138 42.900296,42.900296 0 0 1 -53.342671,-5.83457 42.900296,42.900296 0 0 1 -5.76795,-53.409032 z"
           id="path989"
           inkscape:connector-curvature="0" />
        <path
           inkscape:connector-curvature="0"
           id="path991"
           d="m -99.053689,96.954007 a 42.900296,42.900296 0 0 0 -8.588351,3.739413 42.900296,42.900296 0 0 0 -15.70302,58.60303 42.900296,42.900296 0 0 0 58.603241,15.70231 42.900296,42.900296 0 0 0 7.45115,-5.52101 42.900296,42.900296 0 0 1 -50.014891,-19.44172 42.900296,42.900296 0 0 1 8.251871,-53.082023 z"
           style="opacity:1;vector-effect:none;fill:#ff7f2a;fill-opacity:1;fill-rule:nonzero;stroke:none;stroke-width:5.29786587;stroke-linecap:round;stroke-linejoin:round;stroke-miterlimit:4;stroke-dasharray:none;stroke-dashoffset:0;stroke-opacity:1" />
        <path
           style="opacity:1;vector-effect:none;fill:#ff7f2a;fill-opacity:1;fill-rule:nonzero;stroke:none;stroke-width:5.29786587;stroke-linecap:round;stroke-linejoin:round;stroke-miterlimit:4;stroke-dasharray:none;stroke-dashoffset:0;stroke-opacity:1"
           d="m -84.608599,102.15605 a 42.900296,42.900296 0 0 0 -9.26355,1.38916 42.900296,42.900296 0 0 0 -30.335531,52.54193 42.900296,42.900296 0 0 0 52.542331,30.3349 42.900296,42.900296 0 0 0 8.6262,-3.40439 42.900296,42.900296 0 0 1 -43.278781,-31.72406 42.900296,42.900296 0 0 1 21.709331,-49.13754 z"
           id="path993"
           inkscape:connector-curvature="0" />
        <path
           inkscape:connector-curvature="0"
           id="path995"
           d="m -75.358579,112.1866 a 42.900296,42.900296 0 0 0 -9.30744,-1.05576 42.900296,42.900296 0 0 0 -42.900731,42.9002 42.900296,42.900296 0 0 0 42.900741,42.90023 42.900296,42.900296 0 0 0 9.21339,-1.05576 42.900296,42.900296 0 0 1 -33.593301,-41.84447 42.900296,42.900296 0 0 1 33.687341,-41.84444 z"
           style="opacity:1;vector-effect:none;fill:#ff7f2a;fill-opacity:1;fill-rule:nonzero;stroke:none;stroke-width:5.29786587;stroke-linecap:round;stroke-linejoin:round;stroke-miterlimit:4;stroke-dasharray:none;stroke-dashoffset:0;stroke-opacity:1" />
      </g>
      <g
         id="g1013"
         transform="matrix(0,1,1,0,115.39616,189.53189)"
         style="stroke-width:1.33489537">
        <path
           style="opacity:1;vector-effect:none;fill:#ff7f2a;fill-opacity:1;fill-rule:nonzero;stroke:none;stroke-width:5.29786587;stroke-linecap:round;stroke-linejoin:round;stroke-miterlimit:4;stroke-dasharray:none;stroke-dashoffset:0;stroke-opacity:1"
           d="m -142.80385,88.643492 a 42.900296,42.900296 0 0 0 -1.05575,9.307453 42.900296,42.900296 0 0 0 42.90022,42.900735 42.900296,42.900296 0 0 0 42.900221,-42.900735 42.900296,42.900296 0 0 0 -1.05575,-9.213403 42.900296,42.900296 0 0 1 -41.844471,33.593288 42.900296,42.900296 0 0 1 -41.84447,-33.687338 z"
           id="path999"
           inkscape:connector-curvature="0" />
        <path
           inkscape:connector-curvature="0"
           id="path1001"
           d="m -133.86585,85.5064 a 42.900296,42.900296 0 0 0 -3.42872,8.717053 42.900296,42.900296 0 0 0 30.3349,52.542317 42.900296,42.900296 0 0 0 52.541961,-30.33554 42.900296,42.900296 0 0 0 1.36483,-9.1727 42.900296,42.900296 0 0 1 -49.113241,21.61848 42.900296,42.900296 0 0 1 -31.69973,-43.36961 z"
           style="opacity:1;vector-effect:none;fill:#ff7f2a;fill-opacity:1;fill-rule:nonzero;stroke:none;stroke-width:5.29786587;stroke-linecap:round;stroke-linejoin:round;stroke-miterlimit:4;stroke-dasharray:none;stroke-dashoffset:0;stroke-opacity:1" />
        <path
           style="opacity:1;vector-effect:none;fill:#ff7f2a;fill-opacity:1;fill-rule:nonzero;stroke:none;stroke-width:5.29786587;stroke-linecap:round;stroke-linejoin:round;stroke-miterlimit:4;stroke-dasharray:none;stroke-dashoffset:0;stroke-opacity:1"
           d="m -120.67586,87.333243 a 42.900296,42.900296 0 0 0 -5.56803,7.532613 42.900296,42.900296 0 0 0 15.70231,58.603214 42.900296,42.900296 0 0 0 58.603051,-15.70302 42.900296,42.900296 0 0 0 3.69239,-8.50691 42.900296,42.900296 0 0 1 -53.035031,8.17042 42.900296,42.900296 0 0 1 -19.39469,-50.096317 z"
           id="path1003"
           inkscape:connector-curvature="0" />
        <path
           inkscape:connector-curvature="0"
           id="path1005"
           d="m -107.30846,93.500398 a 42.900296,42.900296 0 0 0 -7.32788,5.83482 42.900296,42.900296 0 0 0 -2.6e-4,60.670422 42.900296,42.900296 0 0 0 60.670441,-2.6e-4 42.900296,42.900296 0 0 0 5.76832,-7.26138 42.900296,42.900296 0 0 1 -53.342671,-5.83457 42.900296,42.900296 0 0 1 -5.76795,-53.409032 z"
           style="opacity:1;vector-effect:none;fill:#ff7f2a;fill-opacity:1;fill-rule:nonzero;stroke:none;stroke-width:5.29786587;stroke-linecap:round;stroke-linejoin:round;stroke-miterlimit:4;stroke-dasharray:none;stroke-dashoffset:0;stroke-opacity:1" />
        <path
           style="opacity:1;vector-effect:none;fill:#ff7f2a;fill-opacity:1;fill-rule:nonzero;stroke:none;stroke-width:5.29786587;stroke-linecap:round;stroke-linejoin:round;stroke-miterlimit:4;stroke-dasharray:none;stroke-dashoffset:0;stroke-opacity:1"
           d="m -99.053689,96.954007 a 42.900296,42.900296 0 0 0 -8.588351,3.739413 42.900296,42.900296 0 0 0 -15.70302,58.60303 42.900296,42.900296 0 0 0 58.603241,15.70231 42.900296,42.900296 0 0 0 7.45115,-5.52101 42.900296,42.900296 0 0 1 -50.014891,-19.44172 42.900296,42.900296 0 0 1 8.251871,-53.082023 z"
           id="path1007"
           inkscape:connector-curvature="0" />
        <path
           inkscape:connector-curvature="0"
           id="path1009"
           d="m -84.608599,102.15605 a 42.900296,42.900296 0 0 0 -9.26355,1.38916 42.900296,42.900296 0 0 0 -30.335531,52.54193 42.900296,42.900296 0 0 0 52.542331,30.3349 42.900296,42.900296 0 0 0 8.6262,-3.40439 42.900296,42.900296 0 0 1 -43.278781,-31.72406 42.900296,42.900296 0 0 1 21.709331,-49.13754 z"
           style="opacity:1;vector-effect:none;fill:#ff7f2a;fill-opacity:1;fill-rule:nonzero;stroke:none;stroke-width:5.29786587;stroke-linecap:round;stroke-linejoin:round;stroke-miterlimit:4;stroke-dasharray:none;stroke-dashoffset:0;stroke-opacity:1" />
        <path
           style="opacity:1;vector-effect:none;fill:#ff7f2a;fill-opacity:1;fill-rule:nonzero;stroke:none;stroke-width:5.29786587;stroke-linecap:round;stroke-linejoin:round;stroke-miterlimit:4;stroke-dasharray:none;stroke-dashoffset:0;stroke-opacity:1"
           d="m -75.358579,112.1866 a 42.900296,42.900296 0 0 0 -9.30744,-1.05576 42.900296,42.900296 0 0 0 -42.900731,42.9002 42.900296,42.900296 0 0 0 42.900741,42.90023 42.900296,42.900296 0 0 0 9.21339,-1.05576 42.900296,42.900296 0 0 1 -33.593301,-41.84447 42.900296,42.900296 0 0 1 33.687341,-41.84444 z"
           id="path1011"
           inkscape:connector-curvature="0" />
      </g>
    </g>
    <circle
       style="opacity:1;fill:#ffff00;fill-opacity:1;fill-rule:nonzero;stroke:none;stroke-width:0.94929469;stroke-linecap:round;stroke-linejoin:round;stroke-miterlimit:4;stroke-dasharray:none;stroke-opacity:1"
       id="path815"
       cx="106.23965"
       cy="145.32567"
       r="52.417725" />
    <path
       inkscape:connector-curvature="0"
       style="opacity:1;fill:#ffcc00;fill-opacity:1;fill-rule:nonzero;stroke:none;stroke-width:0.94929463;stroke-linecap:round;stroke-linejoin:round;stroke-miterlimit:4;stroke-dasharray:none;stroke-opacity:1"
       d="m 106.23959,92.907805 a 52.417723,52.417723 0 0 0 -52.417588,52.418005 52.417723,52.417723 0 0 0 52.417588,52.41758 52.417723,52.417723 0 0 0 11.5436,-1.35365 52.417723,52.417723 0 0 1 -40.793958,-51.06393 52.417723,52.417723 0 0 1 40.874818,-51.063931 52.417723,52.417723 0 0 0 -11.62446,-1.354074 z"
       id="circle5048" />
    <g
       id="g5125"
       transform="matrix(0.80649289,0,0,0.80649289,29.808106,16.74008)">
      <ellipse
         ry="12.514173"
         rx="7.389998"
         transform="scale(-1,1)"
         cy="146.38422"
         cx="-71.9972"
         id="path984-1-9"
         style="opacity:1;fill:#000000;fill-opacity:1;fill-rule:nonzero;stroke:#000000;stroke-width:3.80799389;stroke-linecap:round;stroke-linejoin:round;stroke-miterlimit:4;stroke-dasharray:none;stroke-opacity:1" />
      <ellipse
         ry="12.514173"
         rx="7.389998"
         transform="scale(-1,1)"
         cy="146.38422"
         cx="-117.54331"
         id="path984-1-9-1"
         style="opacity:1;fill:#000000;fill-opacity:1;fill-rule:nonzero;stroke:#000000;stroke-width:3.80799389;stroke-linecap:round;stroke-linejoin:round;stroke-miterlimit:4;stroke-dasharray:none;stroke-opacity:1" />
    </g>
    <g
       id="g5129"
       transform="matrix(0.80649289,0,0,0.80649289,29.578645,4.241841)">
      <circle
         r="7.2847271"
         cy="174.73244"
         cx="55.557301"
         id="path984"
         style="opacity:1;fill:#ff5555;fill-opacity:1;fill-rule:nonzero;stroke:none;stroke-width:2.88460493;stroke-linecap:round;stroke-linejoin:round;stroke-miterlimit:4;stroke-dasharray:none;stroke-opacity:1;filter:url(#filter5096)" />
      <circle
         r="7.2847271"
         cy="174.73244"
         cx="134.55225"
         id="path984-8"
         style="opacity:1;fill:#ff5555;fill-opacity:1;fill-rule:nonzero;stroke:none;stroke-width:2.88460493;stroke-linecap:round;stroke-linejoin:round;stroke-miterlimit:4;stroke-dasharray:none;stroke-opacity:1;filter:url(#filter5096-1)" />
    </g>
    <path
       style="opacity:1;vector-effect:none;fill:none;fill-opacity:1;fill-rule:nonzero;stroke:#000000;stroke-width:3.20076871;stroke-linecap:round;stroke-linejoin:round;stroke-miterlimit:4;stroke-dasharray:none;stroke-dashoffset:0;stroke-opacity:1"
       id="path5121"
       sodipodi:type="arc"
       sodipodi:cx="106.23965"
       sodipodi:cy="147.14374"
       sodipodi:rx="7.7732949"
       sodipodi:ry="7.7732949"
       sodipodi:start="0"
       sodipodi:end="3.1415927"
       sodipodi:open="true"
       d="m 114.01294,147.14374 a 7.7732949,7.7732949 0 0 1 -3.88665,6.73187 7.7732949,7.7732949 0 0 1 -7.77329,0 7.7732949,7.7732949 0 0 1 -3.886648,-6.73187" />
  </g>
</svg>
